$MeshFormat
2.2 0 8
$EndMeshFormat
$PhysicalNames
5
1 1 "Inlet"
1 2 "Mirror"
1 3 "Outlet"
1 4 "Wall"
2 5 "InField"
$EndPhysicalNames
$Nodes
1056
1 -0.2 0 0
2 0 0 0
3 2 0 0
4 2 0.15 0
5 0 0.15 0
6 -0.2 0.15 0
7 -0.2 0.06 0
8 0 0.06 0
9 2 0.06 0
10 -0.09677418917441105 0 0
11 -0.04516128636906544 0 0
12 -0.01935483627025197 0 0
13 -0.006451611872775986 0 0
14 0.008385769069562 0 0
15 0.01794554474929984 0 0
16 0.02884368868975771 0 0
17 0.04126757355248801 0 0
18 0.05543080347369977 0 0
19 0.07157688426858116 0 0
20 0.08998341498242252 0 0
21 0.110966860411726 0 0
22 0.1348879891653778 0 0
23 0.1621580762815359 0 0
24 0.1932459749334896 0 0
25 0.2286861788428252 0 0
26 0.2690880100017293 0 0
27 0.3151460989210104 0 0
28 0.3676523197376611 0 0
29 0.4275094101749974 0 0
30 0.4957464936167622 0 0
31 0.5735367688997871 0 0
32 0.6622176832819762 0 0
33 0.7633139265418214 0 0
34 0.8785636426009823 0 0
35 1.009948319394727 0 0
36 1.159726849277854 0 0
37 1.330474372853561 0 0
38 1.525126550679122 0 0
39 1.747030031789903 0 0
40 2 6.178558308008386e-05 0
41 2 0.0001371639146015477 0
42 2 0.0002291254161698954 0
43 2 0.0003413184596740578 0
44 2 0.000478194018680104 0
45 2 0.0006451822002109384 0
46 2 0.0008489077042863519 0
47 2 0.001097452850795761 0
48 2 0.001400677993636436 0
49 2 0.001770612726717068 0
50 2 0.002221933026495406 0
51 2 0.002772543774422192 0
52 2 0.003444288905945269 0
53 2 0.004263817939325593 0
54 2 0.005263643441419203 0
55 2 0.006483430522270152 0
56 2 0.007971570718843104 0
57 2 0.009787101730343178 0
58 2 0.01200204962302634 0
59 2 0.01470428612894766 0
60 2 0.01800101466258565 0
61 2 0.02202302341918208 0
62 2 0.02692987408347751 0
63 2 0.03291623200434052 0
64 2 0.04021958869179518 0
65 2 0.04912968385452141 0
66 1.747030031259083 0.15 0
67 1.525126548079834 0.15 0
68 1.330474369000184 0.15 0
69 1.159726844386765 0.15 0
70 1.00994831338581 0.15 0
71 0.8785636365038869 0.15 0
72 0.7633139197320509 0.15 0
73 0.6622176763685639 0.15 0
74 0.5735367624304637 0.15 0
75 0.495746487234209 0.15 0
76 0.4275094039872864 0.15 0
77 0.3676523137792409 0.15 0
78 0.315146092830435 0.15 0
79 0.2690880046003539 0.15 0
80 0.2286861737466621 0.15 0
81 0.1932459701490572 0.15 0
82 0.1621580715286852 0.15 0
83 0.1348879850005116 0.15 0
84 0.1109668565463078 0.15 0
85 0.08998341140571053 0.15 0
86 0.07157688096796178 0.15 0
87 0.05543080022261759 0.15 0
88 0.04126757076169341 0.15 0
89 0.02884368613157284 0.15 0
90 0.01794554240868185 0.15 0
91 0.008385766931654937 0.15 0
92 -0.006451613170400912 0.15 0
93 -0.0193548380210881 0.15 0
94 -0.04516128864133597 0.15 0
95 -0.09677419145875421 0.15 0
96 -0.2 0.112615384714756 0
97 -0.2 0.08769230785227036 0
98 -0.2 0.07107692324371499 0
99 0 0.112615384714756 0
100 0 0.08769230785227036 0
101 0 0.07107692324371499 0
102 2 0.0710769232238137 0
103 2 0.08769230779252986 0
104 2 0.1126153845804555 0
105 -0.2 0.0491296833766138 0
106 -0.2 0.04021958784380066 0
107 -0.2 0.03291623096240295 0
108 -0.2 0.02692987293412781 0
109 -0.2 0.02202302225803315 0
110 -0.2 0.0180010135090333 0
111 -0.2 0.01470428497758541 0
112 -0.2 0.01200204856866309 0
113 -0.2 0.009787100776055664 0
114 -0.2 0.007971569848496188 0
115 -0.2 0.006483429713552556 0
116 -0.2 0.005263642695429727 0
117 -0.2 0.004263817263060285 0
118 -0.2 0.003444288353922714 0
119 -0.2 0.002772543241259369 0
120 -0.2 0.002221932600412736 0
121 -0.2 0.00177061232034019 0
122 -0.2 0.001400677640800645 0
123 -0.2 0.001097452553983122 0
124 -0.2 0.0008489074487835549 0
125 -0.2 0.0006451819876645143 0
126 -0.2 0.0004781938237683539 0
127 -0.2 0.0003413182926066821 0
128 -0.2 0.0002291252732429458 0
129 -0.2 0.0001371637925411257 0
130 -0.2 6.178547857717959e-05 0
131 0 0.0491296833766138 0
132 0 0.04021958784380066 0
133 0 0.03291623096240295 0
134 0 0.02692987293412781 0
135 0 0.02202302225803315 0
136 0 0.0180010135090333 0
137 0 0.01470428497758541 0
138 0 0.01200204856866309 0
139 0 0.009787100776055664 0
140 0 0.007971569848496188 0
141 0 0.006483429713552556 0
142 0 0.005263642695429727 0
143 0 0.004263817263060285 0
144 0 0.003444288353922714 0
145 0 0.002772543241259369 0
146 0 0.002221932600412736 0
147 0 0.00177061232034019 0
148 0 0.001400677640800645 0
149 0 0.001097452553983122 0
150 0 0.0008489074487835549 0
151 0 0.0006451819876645143 0
152 0 0.0004781938237683539 0
153 0 0.0003413182926066821 0
154 0 0.0002291252732429458 0
155 0 0.0001371637925411257 0
156 0 6.178547857717959e-05 0
157 -0.09677418917441105 0.06 0
158 -0.04516128636906544 0.06 0
159 -0.01935483627025197 0.06 0
160 -0.006451611872775986 0.06 0
161 0.008385769069562 0.06 0
162 0.01794554474929984 0.06 0
163 0.02884368868975771 0.06 0
164 0.04126757355248801 0.06 0
165 0.05543080347369977 0.06 0
166 0.07157688426858116 0.06 0
167 0.08998341498242252 0.06 0
168 0.110966860411726 0.06 0
169 0.1348879891653778 0.06 0
170 0.1621580762815359 0.06 0
171 0.1932459749334896 0.06 0
172 0.2286861788428252 0.06 0
173 0.2690880100017293 0.06 0
174 0.3151460989210104 0.06 0
175 0.3676523197376611 0.06 0
176 0.4275094101749974 0.06 0
177 0.4957464936167622 0.06 0
178 0.5735367688997871 0.06 0
179 0.6622176832819762 0.06 0
180 0.7633139265418214 0.06 0
181 0.8785636426009823 0.06 0
182 1.009948319394727 0.06 0
183 1.159726849277854 0.06 0
184 1.330474372853561 0.06 0
185 1.525126550679122 0.06 0
186 1.747030031789903 0.06 0
187 -0.09677418917441107 6.178547857717957e-05 0
188 -0.09677418917441105 0.0001371637925411257 0
189 -0.09677418917441104 0.0002291252732429458 0
190 -0.09677418917441104 0.0003413182926066821 0
191 -0.09677418917441105 0.0004781938237683538 0
192 -0.09677418917441105 0.0006451819876645143 0
193 -0.09677418917441105 0.0008489074487835549 0
194 -0.09677418917441104 0.001097452553983122 0
195 -0.09677418917441105 0.001400677640800645 0
196 -0.09677418917441108 0.00177061232034019 0
197 -0.09677418917441104 0.002221932600412736 0
198 -0.09677418917441105 0.002772543241259369 0
199 -0.09677418917441108 0.003444288353922714 0
200 -0.09677418917441104 0.004263817263060285 0
201 -0.09677418917441105 0.005263642695429727 0
202 -0.09677418917441104 0.006483429713552556 0
203 -0.09677418917441105 0.007971569848496188 0
204 -0.09677418917441102 0.009787100776055664 0
205 -0.09677418917441104 0.01200204856866309 0
206 -0.09677418917441105 0.01470428497758541 0
207 -0.09677418917441105 0.0180010135090333 0
208 -0.09677418917441105 0.02202302225803315 0
209 -0.09677418917441105 0.02692987293412781 0
210 -0.09677418917441105 0.03291623096240295 0
211 -0.09677418917441104 0.04021958784380066 0
212 -0.09677418917441104 0.0491296833766138 0
213 -0.04516128636906545 6.178547857717959e-05 0
214 -0.04516128636906543 0.0001371637925411256 0
215 -0.04516128636906543 0.0002291252732429458 0
216 -0.04516128636906544 0.0003413182926066821 0
217 -0.04516128636906543 0.0004781938237683538 0
218 -0.04516128636906545 0.0006451819876645143 0
219 -0.04516128636906545 0.0008489074487835549 0
220 -0.04516128636906543 0.001097452553983122 0
221 -0.04516128636906544 0.001400677640800645 0
222 -0.04516128636906543 0.00177061232034019 0
223 -0.04516128636906543 0.002221932600412736 0
224 -0.04516128636906543 0.002772543241259369 0
225 -0.04516128636906543 0.003444288353922714 0
226 -0.04516128636906544 0.004263817263060285 0
227 -0.04516128636906543 0.005263642695429726 0
228 -0.04516128636906544 0.006483429713552556 0
229 -0.04516128636906544 0.007971569848496188 0
230 -0.04516128636906544 0.009787100776055664 0
231 -0.04516128636906545 0.01200204856866309 0
232 -0.04516128636906544 0.01470428497758541 0
233 -0.04516128636906545 0.0180010135090333 0
234 -0.04516128636906544 0.02202302225803315 0
235 -0.04516128636906543 0.02692987293412781 0
236 -0.04516128636906543 0.03291623096240295 0
237 -0.04516128636906543 0.04021958784380066 0
238 -0.04516128636906543 0.0491296833766138 0
239 -0.01935483627025198 6.178547857717957e-05 0
240 -0.01935483627025197 0.0001371637925411256 0
241 -0.01935483627025197 0.0002291252732429458 0
242 -0.01935483627025198 0.0003413182926066822 0
243 -0.01935483627025197 0.0004781938237683538 0
244 -0.01935483627025197 0.0006451819876645142 0
245 -0.01935483627025197 0.0008489074487835549 0
246 -0.01935483627025198 0.001097452553983122 0
247 -0.01935483627025197 0.001400677640800645 0
248 -0.01935483627025198 0.00177061232034019 0
249 -0.01935483627025198 0.002221932600412736 0
250 -0.01935483627025198 0.002772543241259369 0
251 -0.01935483627025197 0.003444288353922714 0
252 -0.01935483627025198 0.004263817263060285 0
253 -0.01935483627025198 0.005263642695429726 0
254 -0.01935483627025198 0.006483429713552556 0
255 -0.01935483627025197 0.007971569848496188 0
256 -0.01935483627025197 0.009787100776055664 0
257 -0.01935483627025197 0.01200204856866309 0
258 -0.01935483627025197 0.0147042849775854 0
259 -0.01935483627025197 0.0180010135090333 0
260 -0.01935483627025197 0.02202302225803315 0
261 -0.01935483627025197 0.02692987293412781 0
262 -0.01935483627025198 0.03291623096240295 0
263 -0.01935483627025198 0.04021958784380066 0
264 -0.01935483627025197 0.04912968337661381 0
265 -0.006451611872775986 6.178547857717957e-05 0
266 -0.006451611872775986 0.0001371637925411257 0
267 -0.006451611872775986 0.0002291252732429458 0
268 -0.006451611872775986 0.0003413182926066822 0
269 -0.006451611872775987 0.0004781938237683539 0
270 -0.006451611872775985 0.0006451819876645143 0
271 -0.006451611872775987 0.000848907448783555 0
272 -0.006451611872775984 0.001097452553983122 0
273 -0.006451611872775986 0.001400677640800645 0
274 -0.006451611872775986 0.001770612320340189 0
275 -0.006451611872775986 0.002221932600412736 0
276 -0.006451611872775986 0.002772543241259369 0
277 -0.006451611872775985 0.003444288353922714 0
278 -0.006451611872775986 0.004263817263060286 0
279 -0.006451611872775986 0.005263642695429727 0
280 -0.006451611872775985 0.006483429713552556 0
281 -0.006451611872775987 0.007971569848496188 0
282 -0.006451611872775985 0.009787100776055664 0
283 -0.006451611872775986 0.01200204856866309 0
284 -0.006451611872775985 0.01470428497758541 0
285 -0.006451611872775987 0.0180010135090333 0
286 -0.006451611872775985 0.02202302225803315 0
287 -0.006451611872775986 0.02692987293412781 0
288 -0.006451611872775985 0.03291623096240295 0
289 -0.006451611872775986 0.04021958784380066 0
290 -0.006451611872775985 0.04912968337661381 0
291 0.008385769069562002 6.178547901534817e-05 0
292 0.008385769069562 0.0001371637930529109 0
293 0.008385769069562 0.0002291252738422219 0
294 0.008385769069562002 0.0003413182933071762 0
295 0.008385769069562003 0.0004781938245855962 0
296 0.008385769069562 0.0006451819885556966 0
297 0.008385769069562002 0.0008489074498548482 0
298 0.008385769069562 0.001097452555227623 0
299 0.008385769069562 0.001400677642280044 0
300 0.008385769069562 0.001770612322044081 0
301 0.008385769069562 0.002221932602199251 0
302 0.008385769069561996 0.002772543243494858 0
303 0.008385769069562 0.00344428835623728 0
304 0.008385769069562003 0.004263817265895787 0
305 0.008385769069562 0.005263642698557574 0
306 0.008385769069562 0.006483429716943413 0
307 0.008385769069561996 0.007971569852145447 0
308 0.008385769069562 0.009787100780056875 0
309 0.008385769069562 0.01200204857308391 0
310 0.008385769069562 0.01470428498241293 0
311 0.008385769069562 0.01800101351387 0
312 0.008385769069562 0.0220230222629017 0
313 0.008385769069562 0.0269298729389469 0
314 0.008385769069562 0.03291623096677167 0
315 0.008385769069562 0.04021958784735618 0
316 0.008385769069562 0.0491296833786176 0
317 0.01794554474929984 6.178547951486035e-05 0
318 0.01794554474929984 0.000137163793636346 0
319 0.01794554474929984 0.0002291252745253967 0
320 0.01794554474929984 0.0003413182941057396 0
321 0.01794554474929984 0.0004781938255172525 0
322 0.01794554474929984 0.0006451819895716448 0
323 0.01794554474929983 0.0008489074510761232 0
324 0.01794554474929984 0.001097452556646354 0
325 0.01794554474929984 0.001400677643966559 0
326 0.01794554474929984 0.001770612323986516 0
327 0.01794554474929984 0.002221932604235878 0
328 0.01794554474929984 0.002772543246043316 0
329 0.01794554474929983 0.003444288358875886 0
330 0.01794554474929984 0.004263817269128258 0
331 0.01794554474929984 0.005263642702123318 0
332 0.01794554474929984 0.006483429720808993 0
333 0.01794554474929984 0.007971569856305611 0
334 0.01794554474929984 0.009787100784618263 0
335 0.01794554474929984 0.01200204857812365 0
336 0.01794554474929984 0.01470428498791631 0
337 0.01794554474929984 0.01800101351938385 0
338 0.01794554474929984 0.02202302226845187 0
339 0.01794554474929984 0.02692987294444065 0
340 0.01794554474929984 0.03291623097175201 0
341 0.01794554474929984 0.0402195878514095 0
342 0.01794554474929984 0.04912968338090195 0
343 0.02884368868975771 6.17854800843042e-05 0
344 0.02884368868975771 0.000137163794301462 0
345 0.0288436886897577 0.000229125275304216 0
346 0.02884368868975771 0.0003413182950161017 0
347 0.02884368868975771 0.0004781938265793406 0
348 0.02884368868975771 0.0006451819907298255 0
349 0.02884368868975771 0.0008489074524683762 0
350 0.02884368868975771 0.001097452558263707 0
351 0.0288436886897577 0.001400677645889187 0
352 0.02884368868975771 0.001770612326200894 0
353 0.0288436886897577 0.002221932606557632 0
354 0.0288436886897577 0.00277254324894856 0
355 0.0288436886897577 0.003444288361883897 0
356 0.02884368868975771 0.004263817272813277 0
357 0.02884368868975771 0.005263642706188268 0
358 0.02884368868975771 0.006483429725215754 0
359 0.0288436886897577 0.007971569861048191 0
360 0.0288436886897577 0.009787100789818249 0
361 0.02884368868975771 0.01200204858386895 0
362 0.02884368868975771 0.01470428499419017 0
363 0.0288436886897577 0.01800101352566964 0
364 0.02884368868975771 0.02202302227477905 0
365 0.02884368868975771 0.02692987295070355 0
366 0.02884368868975771 0.03291623097742959 0
367 0.02884368868975771 0.04021958785603029 0
368 0.0288436886897577 0.0491296833835061 0
369 0.04126757355248801 6.178548073347019e-05 0
370 0.04126757355248801 0.0001371637950596943 0
371 0.04126757355248801 0.0002291252761920699 0
372 0.04126757355248801 0.0003413182960539145 0
373 0.04126757355248802 0.0004781938277901212 0
374 0.04126757355248802 0.0006451819920501517 0
375 0.04126757355248801 0.0008489074540555449 0
376 0.04126757355248801 0.001097452560107491 0
377 0.04126757355248801 0.001400677648080982 0
378 0.04126757355248801 0.001770612328725283 0
379 0.04126757355248802 0.002221932609204434 0
380 0.04126757355248799 0.002772543252260536 0
381 0.04126757355248801 0.003444288365313028 0
382 0.04126757355248801 0.004263817277014199 0
383 0.04126757355248802 0.005263642710822312 0
384 0.04126757355248801 0.006483429730239461 0
385 0.04126757355248801 0.007971569866454734 0
386 0.04126757355248801 0.009787100795746226 0
387 0.04126757355248801 0.01200204859041859 0
388 0.04126757355248801 0.01470428500134236 0
389 0.04126757355248801 0.01800101353283544 0
390 0.04126757355248802 0.02202302228199204 0
391 0.04126757355248802 0.02692987295784324 0
392 0.04126757355248801 0.03291623098390205 0
393 0.04126757355248801 0.04021958786129798 0
394 0.04126757355248801 0.04912968338647483 0
395 0.05543080347369977 6.178548147351955e-05 0
396 0.05543080347369977 0.0001371637959240792 0
397 0.05543080347369977 0.0002291252772042236 0
398 0.05543080347369978 0.0003413182972370215 0
399 0.05543080347369976 0.0004781938291704112 0
400 0.05543080347369977 0.0006451819935553237 0
401 0.05543080347369978 0.0008489074558649172 0
402 0.05543080347369977 0.001097452562209403 0
403 0.05543080347369977 0.00140067765057963 0
404 0.05543080347369977 0.001770612331603088 0
405 0.05543080347369979 0.002221932612221788 0
406 0.05543080347369977 0.00277254325603619 0
407 0.05543080347369977 0.00344428836922224 0
408 0.05543080347369977 0.004263817281803249 0
409 0.05543080347369977 0.005263642716105124 0
410 0.05543080347369976 0.006483429735966487 0
411 0.05543080347369977 0.007971569872618201 0
412 0.05543080347369977 0.009787100802504122 0
413 0.05543080347369977 0.01200204859788519 0
414 0.05543080347369979 0.01470428500949587 0
415 0.05543080347369977 0.01800101354100446 0
416 0.05543080347369979 0.02202302229021485 0
417 0.05543080347369977 0.0269298729659825 0
418 0.05543080347369977 0.03291623099128065 0
419 0.05543080347369977 0.04021958786730315 0
420 0.05543080347369977 0.04912968338985918 0
421 0.07157688426858116 6.178548231717569e-05 0
422 0.07157688426858116 0.000137163796909478 0
423 0.07157688426858114 0.0002291252783580786 0
424 0.07157688426858116 0.0003413182985857632 0
425 0.07157688426858115 0.0004781938307439416 0
426 0.07157688426858116 0.0006451819952712193 0
427 0.07157688426858115 0.0008489074579276017 0
428 0.07157688426858119 0.001097452564605583 0
429 0.07157688426858116 0.001400677653428087 0
430 0.07157688426858116 0.001770612334883785 0
431 0.07157688426858116 0.002221932615661571 0
432 0.07157688426858116 0.002772543260340435 0
433 0.07157688426858116 0.003444288373678741 0
434 0.07157688426858118 0.004263817287262765 0
435 0.07157688426858116 0.005263642722127526 0
436 0.07157688426858116 0.006483429742495297 0
437 0.07157688426858116 0.007971569879644544 0
438 0.07157688426858116 0.009787100810208125 0
439 0.07157688426858116 0.01200204860639711 0
440 0.07157688426858116 0.01470428501879087 0
441 0.07157688426858116 0.01800101355031714 0
442 0.07157688426858116 0.02202302229958886 0
443 0.07157688426858116 0.02692987297526124 0
444 0.07157688426858116 0.03291623099969225 0
445 0.07157688426858116 0.04021958787414904 0
446 0.07157688426858116 0.04912968339371736 0
447 0.08998341498242253 6.178548327894366e-05 0
448 0.08998341498242252 0.0001371637980328324 0
449 0.08998341498242253 0.0002291252796734732 0
450 0.08998341498242252 0.0003413183001233285 0
451 0.08998341498242252 0.0004781938325377662 0
452 0.08998341498242253 0.0006451819972273405 0
453 0.08998341498242252 0.0008489074602790616 0
454 0.08998341498242252 0.001097452567337229 0
455 0.08998341498242249 0.001400677656675329 0
456 0.08998341498242252 0.001770612338623779 0
457 0.08998341498242252 0.002221932619582922 0
458 0.08998341498242252 0.002772543265247274 0
459 0.08998341498242252 0.003444288378759151 0
460 0.08998341498242252 0.004263817293486615 0
461 0.08998341498242252 0.005263642728993064 0
462 0.08998341498242252 0.006483429749938139 0
463 0.08998341498242252 0.007971569887654578 0
464 0.08998341498242252 0.009787100818990684 0
465 0.08998341498242252 0.01200204861610069 0
466 0.08998341498242249 0.01470428502938716 0
467 0.08998341498242249 0.01800101356093358 0
468 0.08998341498242252 0.02202302231027521 0
469 0.08998341498242252 0.02692987298583902 0
470 0.08998341498242252 0.03291623100928149 0
471 0.08998341498242252 0.04021958788195337 0
472 0.08998341498242252 0.04912968339811566 0
473 0.110966860411726 6.178548437535915e-05 0
474 0.110966860411726 0.0001371637993134564 0
475 0.110966860411726 0.0002291252811730232 0
476 0.110966860411726 0.0003413183018761531 0
477 0.110966860411726 0.0004781938345827263 0
478 0.110966860411726 0.0006451819994573187 0
479 0.110966860411726 0.0008489074629597262 0
480 0.110966860411726 0.001097452570451305 0
481 0.110966860411726 0.001400677660377184 0
482 0.110966860411726 0.001770612342887373 0
483 0.110966860411726 0.002221932624053263 0
484 0.110966860411726 0.00277254327084107 0
485 0.110966860411726 0.003444288384550818 0
486 0.110966860411726 0.004263817300581802 0
487 0.110966860411726 0.005263642736819779 0
488 0.110966860411726 0.00648342975842298 0
489 0.110966860411726 0.007971569896786018 0
490 0.110966860411726 0.009787100829002807 0
491 0.110966860411726 0.01200204862716277 0
492 0.110966860411726 0.01470428504146693 0
493 0.110966860411726 0.01800101357303634 0
494 0.110966860411726 0.02202302232245767 0
495 0.110966860411726 0.02692987299789767 0
496 0.110966860411726 0.0329162310202132 0
497 0.110966860411726 0.04021958789085028 0
498 0.110966860411726 0.04912968340312973 0
499 0.1348879891653777 6.178548562527287e-05 0
500 0.1348879891653778 0.000137163800773368 0
501 0.1348879891653778 0.0002291252828825101 0
502 0.1348879891653778 0.0003413183038743732 0
503 0.1348879891653777 0.0004781938369139808 0
504 0.1348879891653778 0.000645182001999494 0
505 0.1348879891653778 0.0008489074660156839 0
506 0.1348879891653778 0.001097452574001352 0
507 0.1348879891653778 0.001400677664597299 0
508 0.1348879891653778 0.00177061234774787 0
509 0.1348879891653778 0.002221932629149452 0
510 0.1348879891653778 0.002772543277217999 0
511 0.1348879891653778 0.00344428839115332 0
512 0.1348879891653778 0.004263817308670318 0
513 0.1348879891653778 0.005263642745742234 0
514 0.1348879891653778 0.006483429768095698 0
515 0.1348879891653778 0.007971569907195856 0
516 0.1348879891653778 0.009787100840416623 0
517 0.1348879891653778 0.01200204863977356 0
518 0.1348879891653778 0.01470428505523787 0
519 0.1348879891653778 0.01800101358683347 0
520 0.1348879891653778 0.02202302233634566 0
521 0.1348879891653778 0.02692987301164454 0
522 0.1348879891653778 0.03291623103267537 0
523 0.1348879891653778 0.04021958790099279 0
524 0.1348879891653778 0.04912968340884578 0
525 0.1621580762815359 6.178548705017452e-05 0
526 0.1621580762815359 0.0001371638024376672 0
527 0.1621580762815359 0.0002291252848313253 0
528 0.1621580762815359 0.0003413183061523442 0
529 0.1621580762815359 0.000478193839571611 0
530 0.1621580762815359 0.0006451820048975738 0
531 0.162158076281536 0.0008489074694994755 0
532 0.1621580762815359 0.001097452578048405 0
533 0.1621580762815359 0.00140067766940823 0
534 0.1621580762815359 0.001770612353288836 0
535 0.1621580762815359 0.002221932634959109 0
536 0.1621580762815359 0.002772543284487697 0
537 0.1621580762815359 0.003444288398680171 0
538 0.1621580762815359 0.004263817317891223 0
539 0.1621580762815359 0.005263642755913834 0
540 0.162158076281536 0.0064834297791226 0
541 0.1621580762815359 0.007971569919063075 0
542 0.1621580762815359 0.009787100853428375 0
543 0.1621580762815359 0.01200204865414984 0
544 0.1621580762815359 0.01470428507093675 0
545 0.1621580762815359 0.0180010136025622 0
546 0.1621580762815359 0.02202302235217798 0
547 0.1621580762815359 0.02692987302731597 0
548 0.1621580762815359 0.03291623104688223 0
549 0.1621580762815359 0.04021958791255523 0
550 0.1621580762815359 0.04912968341536207 0
551 0.1932459749334896 6.178548867456236e-05 0
552 0.1932459749334896 0.0001371638043349682 0
553 0.1932459749334896 0.0002291252870529746 0
554 0.1932459749334896 0.0003413183087492308 0
555 0.1932459749334896 0.0004781938426013093 0
556 0.1932459749334896 0.0006451820082013846 0
557 0.1932459749334896 0.0008489074734709983 0
558 0.1932459749334896 0.001097452582662045 0
559 0.1932459749334896 0.001400677674892692 0
560 0.1932459749334896 0.001770612359605537 0
561 0.1932459749334896 0.002221932641582116 0
562 0.1932459749334897 0.002772543292775153 0
563 0.1932459749334896 0.003444288407260782 0
564 0.1932459749334896 0.004263817328403057 0
565 0.1932459749334896 0.005263642767509455 0
566 0.1932459749334896 0.006483429791693265 0
567 0.1932459749334897 0.007971569932591705 0
568 0.1932459749334896 0.00978710086826177 0
569 0.1932459749334896 0.01200204867053881 0
570 0.1932459749334896 0.01470428508883346 0
571 0.1932459749334896 0.01800101362049297 0
572 0.1932459749334896 0.02202302237022682 0
573 0.1932459749334896 0.0269298730451814 0
574 0.1932459749334896 0.03291623106307805 0
575 0.1932459749334896 0.04021958792573641 0
576 0.1932459749334896 0.04912968342279064 0
577 0.2286861788428253 6.17854905263645e-05 0
578 0.2286861788428252 0.0001371638064978914 0
579 0.2286861788428253 0.0002291252895856547 0
580 0.2286861788428252 0.0003413183117096819 0
581 0.2286861788428253 0.0004781938460551653 0
582 0.2286861788428252 0.0006451820119677289 0
583 0.2286861788428252 0.0008489074779985336 0
584 0.2286861788428252 0.001097452587921596 0
585 0.2286861788428252 0.001400677681144978 0
586 0.2286861788428252 0.001770612366806577 0
587 0.2286861788428252 0.002221932649132344 0
588 0.2286861788428252 0.002772543302222853 0
589 0.2286861788428252 0.003444288417042678 0
590 0.2286861788428252 0.004263817340386548 0
591 0.2286861788428252 0.005263642780728465 0
592 0.2286861788428252 0.006483429806023823 0
593 0.2286861788428252 0.00797156994801434 0
594 0.2286861788428252 0.009787100885171842 0
595 0.2286861788428252 0.01200204868922224 0
596 0.2286861788428252 0.01470428510923572 0
597 0.2286861788428252 0.01800101364093403 0
598 0.2286861788428252 0.0220230223908025 0
599 0.2286861788428252 0.026929873065548 0
600 0.2286861788428252 0.0329162310815413 0
601 0.2286861788428252 0.04021958794076295 0
602 0.2286861788428253 0.04912968343125922 0
603 0.2690880100017293 6.178549263741883e-05 0
604 0.2690880100017292 0.0001371638089636236 0
605 0.2690880100017293 0.0002291252924729099 0
606 0.2690880100017292 0.0003413183150845959 0
607 0.2690880100017293 0.0004781938499925612 0
608 0.2690880100017293 0.0006451820162613613 0
609 0.2690880100017293 0.0008489074831599241 0
610 0.2690880100017293 0.001097452593917483 0
611 0.2690880100017293 0.001400677688272584 0
612 0.2690880100017293 0.001770612375015762 0
613 0.2690880100017293 0.002221932657739605 0
614 0.2690880100017293 0.00277254331299323 0
615 0.2690880100017294 0.003444288428194039 0
616 0.2690880100017293 0.004263817354047727 0
617 0.2690880100017292 0.005263642795798136 0
618 0.2690880100017293 0.006483429822360658 0
619 0.2690880100017293 0.007971569965596144 0
620 0.2690880100017293 0.009787100904449324 0
621 0.2690880100017293 0.01200204871052134 0
622 0.2690880100017293 0.01470428513249429 0
623 0.2690880100017293 0.01800101366423684 0
624 0.2690880100017293 0.02202302241425877 0
625 0.2690880100017293 0.02692987308876591 0
626 0.2690880100017293 0.03291623110258939 0
627 0.2690880100017293 0.04021958795789322 0
628 0.2690880100017293 0.0491296834409134 0
629 0.3151460989210105 6.178549504402088e-05 0
630 0.3151460989210104 0.0001371638117745585 0
631 0.3151460989210105 0.0002291252957643811 0
632 0.3151460989210104 0.0003413183189319979 0
633 0.3151460989210104 0.0004781938544811927 0
634 0.3151460989210103 0.0006451820211561022 0
635 0.3151460989210104 0.0008489074890439095 0
636 0.3151460989210104 0.001097452600752794 0
637 0.3151460989210104 0.001400677696398056 0
638 0.3151460989210104 0.001770612384374233 0
639 0.3151460989210104 0.002221932667551881 0
640 0.3151460989210105 0.00277254332527146 0
641 0.3151460989210104 0.003444288440906591 0
642 0.3151460989210105 0.004263817369621471 0
643 0.3151460989210104 0.005263642812977561 0
644 0.3151460989210104 0.006483429840984653 0
645 0.3151460989210103 0.007971569985639403 0
646 0.3151460989210104 0.009787100926425655 0
647 0.3151460989210105 0.01200204873480232 0
648 0.3151460989210104 0.01470428515900906 0
649 0.3151460989210104 0.01800101369080205 0
650 0.3151460989210103 0.02202302244099892 0
651 0.3151460989210104 0.02692987311523434 0
652 0.3151460989210104 0.03291623112658423 0
653 0.3151460989210104 0.04021958797742173 0
654 0.3151460989210104 0.04912968345191915 0
655 0.367652319737661 6.178549778754714e-05 0
656 0.3676523197376611 0.0001371638149790242 0
657 0.3676523197376611 0.0002291252995166581 0
658 0.3676523197376611 0.0003413183233180361 0
659 0.3676523197376611 0.0004781938595982322 0
660 0.3676523197376611 0.0006451820267361068 0
661 0.3676523197376611 0.0008489074957516526 0
662 0.367652319737661 0.001097452608545049 0
663 0.3676523197376611 0.001400677705661093 0
664 0.367652319737661 0.00177061239504289 0
665 0.3676523197376611 0.002221932678737876 0
666 0.3676523197376612 0.002772543339268643 0
667 0.3676523197376611 0.003444288455398899 0
668 0.3676523197376612 0.004263817387375537 0
669 0.3676523197376611 0.005263642832562107 0
670 0.367652319737661 0.006483429862216005 0
671 0.3676523197376611 0.007971570008488716 0
672 0.3676523197376611 0.00978710095147867 0
673 0.3676523197376611 0.01200204876248264 0
674 0.3676523197376611 0.0147042851892359 0
675 0.3676523197376611 0.0180010137210864 0
676 0.3676523197376611 0.02202302247148269 0
677 0.3676523197376611 0.02692987314540835 0
678 0.3676523197376611 0.03291623115393832 0
679 0.3676523197376611 0.04021958799968423 0
680 0.3676523197376611 0.04912968346446571 0
681 0.4275094101749973 6.178550091516706e-05 0
682 0.4275094101749973 0.0001371638186321151 0
683 0.4275094101749975 0.0002291253037942537 0
684 0.4275094101749975 0.0003413183283181196 0
685 0.4275094101749974 0.0004781938654316573 0
686 0.4275094101749975 0.0006451820330973123 0
687 0.4275094101749975 0.0008489075033984798 0
688 0.4275094101749974 0.00109745261742822 0
689 0.4275094101749974 0.001400677716220954 0
690 0.4275094101749974 0.001770612407205159 0
691 0.4275094101749974 0.002221932691489911 0
692 0.4275094101749974 0.00277254335522543 0
693 0.4275094101749974 0.003444288471920132 0
694 0.4275094101749974 0.004263817407615176 0
695 0.4275094101749974 0.005263642854888486 0
696 0.4275094101749973 0.006483429886419746 0
697 0.4275094101749974 0.007971570034536935 0
698 0.4275094101749974 0.009787100980039109 0
699 0.4275094101749974 0.01200204879403819 0
700 0.4275094101749974 0.0147042852236945 0
701 0.4275094101749974 0.01800101375561053 0
702 0.4275094101749974 0.02202302250623419 0
703 0.4275094101749974 0.02692987317980671 0
704 0.4275094101749974 0.032916231185122 0
705 0.4275094101749974 0.04021958802506346 0
706 0.4275094101749974 0.04912968347876878 0
707 0.4957464936167621 6.178550448065371e-05 0
708 0.4957464936167622 0.0001371638227966387 0
709 0.4957464936167622 0.0002291253086707128 0
710 0.495746493616762 0.0003413183340182148 0
711 0.4957464936167621 0.0004781938720817621 0
712 0.4957464936167622 0.0006451820403490862 0
713 0.4957464936167622 0.0008489075121158625 0
714 0.4957464936167622 0.001097452627555034 0
715 0.4957464936167622 0.001400677728259197 0
716 0.4957464936167622 0.001770612421070146 0
717 0.4957464936167622 0.00222193270602723 0
718 0.4957464936167622 0.002772543373416168 0
719 0.4957464936167623 0.003444288490754337 0
720 0.4957464936167623 0.00426381743068836 0
721 0.4957464936167622 0.005263642880340558 0
722 0.4957464936167623 0.006483429914012012 0
723 0.4957464936167622 0.0079715700642319 0
724 0.4957464936167622 0.009787101012598004 0
725 0.4957464936167622 0.01200204883001152 0
726 0.4957464936167623 0.0147042852629773 0
727 0.4957464936167622 0.01800101379496806 0
728 0.4957464936167622 0.0220230225458509 0
729 0.4957464936167622 0.02692987321902085 0
730 0.4957464936167622 0.03291623122067138 0
731 0.4957464936167622 0.04021958805399579 0
732 0.4957464936167622 0.04912968349507429 0
733 0.5735367688997873 6.178550854530859e-05 0
734 0.5735367688997871 0.0001371638275441956 0
735 0.5735367688997871 0.0002291253142298761 0
736 0.5735367688997869 0.0003413183405163233 0
737 0.5735367688997871 0.0004781938796628815 0
738 0.5735367688997872 0.0006451820486161086 0
739 0.5735367688997873 0.0008489075220536789 0
740 0.5735367688997871 0.001097452639099603 0
741 0.5735367688997872 0.001400677741982794 0
742 0.5735367688997871 0.00177061243687623 0
743 0.5735367688997871 0.002221932722599774 0
744 0.5735367688997871 0.002772543394153609 0
745 0.5735367688997871 0.003444288512225331 0
746 0.5735367688997869 0.004263817456991795 0
747 0.5735367688997871 0.005263642909355921 0
748 0.5735367688997873 0.006483429945467194 0
749 0.5735367688997871 0.007971570098084165 0
750 0.5735367688997871 0.00978710104971515 0
751 0.5735367688997871 0.01200204887102113 0
752 0.5735367688997873 0.01470428530775969 0
753 0.5735367688997871 0.01800101383983563 0
754 0.5735367688997871 0.02202302259101395 0
755 0.573536768899787 0.02692987326372496 0
756 0.5735367688997871 0.03291623126119769 0
757 0.5735367688997871 0.04021958808697865 0
758 0.5735367688997871 0.04912968351366259 0
759 0.6622176832819761 6.178551317901514e-05 0
760 0.6622176832819762 0.0001371638329564106 0
761 0.6622176832819762 0.0002291253205673224 0
762 0.6622176832819764 0.0003413183479241672 0
763 0.6622176832819762 0.0004781938883053576 0
764 0.6622176832819762 0.0006451820580405143 0
765 0.6622176832819759 0.0008489075333827897 0
766 0.6622176832819762 0.00109745265226041 0
767 0.6622176832819762 0.001400677757627694 0
768 0.6622176832819762 0.001770612454895167 0
769 0.6622176832819762 0.002221932741492475 0
770 0.6622176832819762 0.002772543417794292 0
771 0.6622176832819759 0.003444288536702262 0
772 0.6622176832819762 0.004263817486977707 0
773 0.6622176832819759 0.005263642942433438 0
774 0.6622176832819762 0.0064834299813261 0
775 0.6622176832819762 0.007971570136675743 0
776 0.6622176832819762 0.009787101092028693 0
777 0.6622176832819762 0.01200204891777208 0
778 0.6622176832819762 0.01470428535881162 0
779 0.6622176832819762 0.01800101389098467 0
780 0.6622176832819762 0.02202302264249982 0
781 0.6622176832819762 0.02692987331468765 0
782 0.6622176832819762 0.03291623130739767 0
783 0.6622176832819762 0.04021958812457912 0
784 0.6622176832819762 0.04912968353485322 0
785 0.7633139265418214 6.178551846144066e-05 0
786 0.7633139265418214 0.0001371638391263356 0
787 0.7633139265418214 0.0002291253277920113 0
788 0.7633139265418214 0.0003413183563691092 0
789 0.7633139265418214 0.0004781938981577804 0
790 0.7633139265418214 0.0006451820687843368 0
791 0.7633139265418215 0.0008489075462979762 0
792 0.7633139265418214 0.001097452667263732 0
793 0.7633139265418214 0.001400677775462881 0
794 0.7633139265418214 0.001770612475436755 0
795 0.7633139265418214 0.002221932763030154 0
796 0.7633139265418214 0.002772543444744672 0
797 0.7633139265418214 0.003444288564605965 0
798 0.7633139265418216 0.004263817521161647 0
799 0.7633139265418215 0.005263642980141804 0
800 0.7633139265418214 0.006483430022205256 0
801 0.7633139265418214 0.007971570180670145 0
802 0.7633139265418216 0.009787101140266135 0
803 0.7633139265418214 0.01200204897106816 0
804 0.7633139265418215 0.01470428541701082 0
805 0.7633139265418214 0.01800101394929458 0
806 0.7633139265418214 0.02202302270119371 0
807 0.7633139265418214 0.02692987337278513 0
808 0.7633139265418214 0.03291623136006567 0
809 0.7633139265418214 0.04021958816744365 0
810 0.7633139265418214 0.04912968355901055 0
811 0.8785636426009823 6.178552448340567e-05 0
812 0.8785636426009823 0.0001371638461600501 0
813 0.8785636426009821 0.0002291253360281564 0
814 0.8785636426009823 0.0003413183659963432 0
815 0.8785636426009823 0.0004781939093895424 0
816 0.8785636426009823 0.0006451820810322943 0
817 0.8785636426009822 0.0008489075610212887 0
818 0.8785636426009823 0.001097452684367518 0
819 0.8785636426009824 0.001400677795794993 0
820 0.8785636426009824 0.001770612498854165 0
821 0.8785636426009823 0.002221932787583106 0
822 0.8785636426009823 0.002772543475468104 0
823 0.8785636426009823 0.003444288596416186 0
824 0.8785636426009825 0.00426381756013134 0
825 0.8785636426009821 0.005263643023129341 0
826 0.8785636426009821 0.006483430068807492 0
827 0.8785636426009824 0.007971570230823764 0
828 0.8785636426009823 0.009787101195256817 0
829 0.8785636426009822 0.0120020490318257 0
830 0.8785636426009823 0.01470428548335791 0
831 0.8785636426009822 0.01800101401576787 0
832 0.8785636426009824 0.02202302276810476 0
833 0.8785636426009823 0.02692987343901623 0
834 0.8785636426009823 0.03291623142010717 0
835 0.8785636426009824 0.04021958821630922 0
836 0.8785636426009824 0.0491296835865499 0
837 1.009948319394727 6.178553134844583e-05 0
838 1.009948319394727 0.0001371638541784846 0
839 1.009948319394727 0.000229125345417362 0
840 1.009948319394727 0.0003413183769713897 0
841 1.009948319394727 0.000478193922193751 0
842 1.009948319394727 0.000645182094994966 0
843 1.009948319394727 0.000848907577805865 0
844 1.009948319394727 0.001097452703865835 0
845 1.009948319394727 0.001400677818973601 0
846 1.009948319394727 0.001770612525550013 0
847 1.009948319394727 0.002221932815573473 0
848 1.009948319394727 0.002772543510492817 0
849 1.009948319394727 0.003444288632679839 0
850 1.009948319394727 0.004263817604556789 0
851 1.009948319394727 0.005263643072135136 0
852 1.009948319394727 0.006483430121934042 0
853 1.009948319394727 0.007971570287998888 0
854 1.009948319394727 0.009787101257946195 0
855 1.009948319394727 0.01200204910108928 0
856 1.009948319394727 0.01470428555899358 0
857 1.009948319394727 0.01800101409154742 0
858 1.009948319394727 0.02202302284438335 0
859 1.009948319394727 0.02692987351451971 0
860 1.009948319394727 0.03291623148855449 0
861 1.009948319394727 0.04021958827201596 0
862 1.009948319394727 0.04912968361794478 0
863 1.159726849277854 6.178553917459149e-05 0
864 1.159726849277854 0.0001371638633194999 0
865 1.159726849277854 0.0002291253561210562 0
866 1.159726849277854 0.0003413183894829426 0
867 1.159726849277854 0.0004781939367905487 0
868 1.159726849277854 0.0006451821109124115 0
869 1.159726849277854 0.0008489075969402817 0
870 1.159726849277853 0.001097452726093915 0
871 1.159726849277854 0.001400677845397214 0
872 1.159726849277853 0.001770612555983278 0
873 1.159726849277854 0.002221932847482491 0
874 1.159726849277853 0.002772543550420988 0
875 1.159726849277854 0.003444288674020403 0
876 1.159726849277853 0.004263817655201801 0
877 1.159726849277854 0.005263643128001738 0
878 1.159726849277854 0.006483430182498309 0
879 1.159726849277854 0.007971570353178527 0
880 1.159726849277854 0.009787101329412084 0
881 1.159726849277854 0.01200204918004977 0
882 1.159726849277854 0.01470428564521826 0
883 1.159726849277854 0.01800101417793611 0
884 1.159726849277854 0.02202302293134093 0
885 1.159726849277854 0.02692987360059366 0
886 1.159726849277854 0.03291623156658443 0
887 1.159726849277854 0.04021958833552164 0
888 1.159726849277854 0.04912968365373493 0
889 1.330474372853561 6.178554809639755e-05 0
890 1.330474372853561 0.0001371638737402574 0
891 1.330474372853561 0.0002291253683232675 0
892 1.33047437285356 0.000341318403746113 0
893 1.330474372853561 0.0004781939534308981 0
894 1.330474372853561 0.0006451821290582992 0
895 1.330474372853561 0.0008489076187535164 0
896 1.330474372853561 0.001097452751433927 0
897 1.33047437285356 0.001400677875520133 0
898 1.330474372853561 0.001770612590677201 0
899 1.330474372853561 0.002221932883858772 0
900 1.33047437285356 0.002772543595939105 0
901 1.330474372853561 0.003444288721148645 0
902 1.330474372853561 0.004263817712937114 0
903 1.330474372853561 0.005263643191689665 0
904 1.330474372853561 0.006483430251541573 0
905 1.330474372853561 0.007971570427483319 0
906 1.330474372853561 0.009787101410883202 0
907 1.330474372853561 0.01200204927006473 0
908 1.330474372853561 0.01470428574351438 0
909 1.330474372853561 0.01800101427641922 0
910 1.330474372853561 0.02202302303047259 0
911 1.330474372853561 0.02692987369871796 0
912 1.330474372853561 0.03291623165553855 0
913 1.330474372853561 0.04021958840791813 0
914 1.330474372853561 0.04912968369453568 0
915 1.525126550679122 6.178555826725653e-05 0
916 1.525126550679121 0.0001371638856199208 0
917 1.525126550679122 0.0002291253822337885 0
918 1.525126550679122 0.0003413184200061272 0
919 1.525126550679122 0.0004781939724008964 0
920 1.525126550679122 0.0006451821497446114 0
921 1.525126550679122 0.0008489076436206045 0
922 1.525126550679122 0.00109745278032154 0
923 1.525126550679122 0.00140067790986026 0
924 1.525126550679122 0.001770612630228273 0
925 1.525126550679121 0.002221932925327732 0
926 1.525126550679122 0.002772543647829757 0
927 1.525126550679122 0.00344428877487484 0
928 1.525126550679122 0.004263817778755371 0
929 1.525126550679122 0.005263643264293903 0
930 1.525126550679122 0.006483430330250894 0
931 1.525126550679122 0.007971570512190782 0
932 1.525126550679122 0.009787101503760273 0
933 1.525126550679122 0.01200204937268178 0
934 1.525126550679121 0.01470428585557197 0
935 1.525126550679121 0.01800101438868995 0
936 1.525126550679122 0.02202302314348268 0
937 1.525126550679122 0.02692987381057968 0
938 1.525126550679122 0.03291623175694627 0
939 1.525126550679122 0.04021958849045013 0
940 1.525126550679122 0.04912968374104856 0
941 1.747030031789904 6.178556986203564e-05 0
942 1.747030031789903 0.0001371638991627371 0
943 1.747030031789903 0.0002291253980917824 0
944 1.747030031789903 0.0003413184385425432 0
945 1.747030031789903 0.0004781939940266944 0
946 1.747030031789903 0.000645182173327007 0
947 1.747030031789904 0.0008489076719690842 0
948 1.747030031789903 0.001097452813253419 0
949 1.747030031789904 0.001400677949008006 0
950 1.747030031789903 0.001770612675316495 0
951 1.747030031789903 0.002221932972602345 0
952 1.747030031789903 0.0027725437069851 0
953 1.747030031789903 0.003444288836122704 0
954 1.747030031789903 0.004263817853788185 0
955 1.747030031789903 0.005263643347062735 0
956 1.747030031789903 0.006483430419979517 0
957 1.747030031789904 0.007971570608757287 0
958 1.747030031789903 0.009787101609640135 0
959 1.747030031789903 0.01200204948966522 0
960 1.747030031789904 0.01470428598331762 0
961 1.747030031789903 0.01800101451667859 0
962 1.747030031789903 0.02202302327231417 0
963 1.747030031789904 0.02692987393810203 0
964 1.747030031789903 0.03291623187255104 0
965 1.747030031789903 0.04021958858453658 0
966 1.747030031789904 0.04912968379407325 0
967 -0.09677418945556096 0.07107692324371499 0
968 -0.09677418987728587 0.08769230785227035 0
969 -0.09677419050987321 0.112615384714756 0
970 -0.0451612866487295 0.07107692324371499 0
971 -0.0451612870682256 0.08769230785227035 0
972 -0.04516128769746974 0.112615384714756 0
973 -0.0193548364857395 0.07107692324371501 0
974 -0.01935483680897079 0.08769230785227036 0
975 -0.01935483729381771 0.112615384714756 0
976 -0.006451612032483671 0.07107692324371499 0
977 -0.006451612272045196 0.08769230785227036 0
978 -0.006451612631387483 0.112615384714756 0
979 0.008385768806434976 0.07107692324363155 0
980 0.008385768411744439 0.08769230785201988 0
981 0.00838576781970864 0.112615384714193 0
982 0.01794554446122378 0.0710769232435364 0
983 0.01794554402910968 0.08769230785173435 0
984 0.01794554338093855 0.112615384713551 0
985 0.02884368837490418 0.07107692324342799 0
986 0.0288436879026239 0.0876923078514088 0
987 0.02884368719420348 0.1126153847128192 0
988 0.0412675732090056 0.07107692324330434 0
989 0.04126757269378197 0.08769230785103767 0
990 0.04126757192094655 0.1126153847119849 0
991 0.05543080307356657 0.07107692324316342 0
992 0.05543080247336678 0.08769230785061463 0
993 0.05543080157306712 0.1126153847110339 0
994 0.07157688386235106 0.07107692324300277 0
995 0.07157688325300596 0.08769230785013235 0
996 0.07157688233898829 0.1126153847099496 0
997 0.08998341454221181 0.07107692324281958 0
998 0.08998341388189576 0.08769230784958253 0
999 0.08998341289142164 0.1126153847087136 0
1000 0.1109668599359822 0.07107692324261078 0
1001 0.1109668592223666 0.08769230784895575 0
1002 0.110966858151943 0.1126153847073046 0
1003 0.1348879886527788 0.07107692324237277 0
1004 0.1348879878838805 0.08769230784824122 0
1005 0.1348879867305329 0.1126153847056983 0
1006 0.1621580756965696 0.07107692324210141 0
1007 0.1621580748191203 0.08769230784742668 0
1008 0.1621580735029463 0.1126153847038671 0
1009 0.1932459743446364 0.07107692324179207 0
1010 0.1932459734613566 0.08769230784649805 0
1011 0.1932459721364368 0.1126153847017795 0
1012 0.2286861782156051 0.07107692324143941 0
1013 0.2286861772747751 0.08769230784543944 0
1014 0.2286861758635299 0.1126153846993997 0
1015 0.2690880093369447 0.07107692324103738 0
1016 0.2690880083397676 0.08769230784423263 0
1017 0.2690880068440021 0.1126153846966867 0
1018 0.3151460981714011 0.07107692324057907 0
1019 0.3151460970469872 0.08769230784285686 0
1020 0.3151460953603663 0.1126153846935939 0
1021 0.3676523190043169 0.0710769232400566 0
1022 0.367652317904301 0.08769230784128851 0
1023 0.3676523162542771 0.1126153846900681 0
1024 0.4275094094134331 0.07107692323946098 0
1025 0.4275094082710864 0.08769230783950055 0
1026 0.4275094065575664 0.1126153846860487 0
1027 0.4957464928312172 0.07107692323878198 0
1028 0.4957464916528996 0.08769230783746229 0
1029 0.4957464898854234 0.1126153846814665 0
1030 0.5735367681035627 0.07107692323800793 0
1031 0.5735367669092262 0.08769230783513868 0
1032 0.5735367651177211 0.1126153846762429 0
1033 0.6622176824310946 0.07107692323712551 0
1034 0.6622176811547722 0.08769230783248975 0
1035 0.662217679240289 0.112615384670288 0
1036 0.7633139257036958 0.07107692323611953 0
1037 0.7633139244465073 0.08769230782946998 0
1038 0.7633139225607248 0.1126153846634993 0
1039 0.8785636418505703 0.07107692323497274 0
1040 0.8785636407249531 0.08769230782602744 0
1041 0.8785636390365267 0.1126153846557603 0
1042 1.009948318655168 0.07107692323366537 0
1043 1.009948317545829 0.08769230782210297 0
1044 1.009948315881822 0.1126153846469378 0
1045 1.159726848675873 0.07107692323217497 0
1046 1.159726847772903 0.087692307817629 0
1047 1.159726846418448 0.1126153846368801 0
1048 1.330474372379299 0.0710769232304759 0
1049 1.330474371667906 0.08769230781252875 0
1050 1.330474370600818 0.1126153846254144 0
1051 1.525126550359209 0.07107692322853901 0
1052 1.525126549879341 0.08769230780671443 0
1053 1.525126549159538 0.1126153846123434 0
1054 1.747030031724572 0.07107692322633091 0
1055 1.747030031626574 0.08769230780008611 0
1056 1.747030031479578 0.1126153845974425 0
$EndNodes
$Elements
1118
1 1 2 2 1 1 10
2 1 2 2 1 10 11
3 1 2 2 1 11 12
4 1 2 2 1 12 13
5 1 2 2 1 13 2
6 1 2 4 2 2 14
7 1 2 4 2 14 15
8 1 2 4 2 15 16
9 1 2 4 2 16 17
10 1 2 4 2 17 18
11 1 2 4 2 18 19
12 1 2 4 2 19 20
13 1 2 4 2 20 21
14 1 2 4 2 21 22
15 1 2 4 2 22 23
16 1 2 4 2 23 24
17 1 2 4 2 24 25
18 1 2 4 2 25 26
19 1 2 4 2 26 27
20 1 2 4 2 27 28
21 1 2 4 2 28 29
22 1 2 4 2 29 30
23 1 2 4 2 30 31
24 1 2 4 2 31 32
25 1 2 4 2 32 33
26 1 2 4 2 33 34
27 1 2 4 2 34 35
28 1 2 4 2 35 36
29 1 2 4 2 36 37
30 1 2 4 2 37 38
31 1 2 4 2 38 39
32 1 2 4 2 39 3
33 1 2 3 3 3 40
34 1 2 3 3 40 41
35 1 2 3 3 41 42
36 1 2 3 3 42 43
37 1 2 3 3 43 44
38 1 2 3 3 44 45
39 1 2 3 3 45 46
40 1 2 3 3 46 47
41 1 2 3 3 47 48
42 1 2 3 3 48 49
43 1 2 3 3 49 50
44 1 2 3 3 50 51
45 1 2 3 3 51 52
46 1 2 3 3 52 53
47 1 2 3 3 53 54
48 1 2 3 3 54 55
49 1 2 3 3 55 56
50 1 2 3 3 56 57
51 1 2 3 3 57 58
52 1 2 3 3 58 59
53 1 2 3 3 59 60
54 1 2 3 3 60 61
55 1 2 3 3 61 62
56 1 2 3 3 62 63
57 1 2 3 3 63 64
58 1 2 3 3 64 65
59 1 2 3 3 65 9
60 1 2 3 4 4 66
61 1 2 3 4 66 67
62 1 2 3 4 67 68
63 1 2 3 4 68 69
64 1 2 3 4 69 70
65 1 2 3 4 70 71
66 1 2 3 4 71 72
67 1 2 3 4 72 73
68 1 2 3 4 73 74
69 1 2 3 4 74 75
70 1 2 3 4 75 76
71 1 2 3 4 76 77
72 1 2 3 4 77 78
73 1 2 3 4 78 79
74 1 2 3 4 79 80
75 1 2 3 4 80 81
76 1 2 3 4 81 82
77 1 2 3 4 82 83
78 1 2 3 4 83 84
79 1 2 3 4 84 85
80 1 2 3 4 85 86
81 1 2 3 4 86 87
82 1 2 3 4 87 88
83 1 2 3 4 88 89
84 1 2 3 4 89 90
85 1 2 3 4 90 91
86 1 2 3 4 91 5
87 1 2 3 5 5 92
88 1 2 3 5 92 93
89 1 2 3 5 93 94
90 1 2 3 5 94 95
91 1 2 3 5 95 6
92 1 2 1 6 6 96
93 1 2 1 6 96 97
94 1 2 1 6 97 98
95 1 2 1 6 98 7
96 1 2 3 8 9 102
97 1 2 3 8 102 103
98 1 2 3 8 103 104
99 1 2 3 8 104 4
100 1 2 1 9 7 105
101 1 2 1 9 105 106
102 1 2 1 9 106 107
103 1 2 1 9 107 108
104 1 2 1 9 108 109
105 1 2 1 9 109 110
106 1 2 1 9 110 111
107 1 2 1 9 111 112
108 1 2 1 9 112 113
109 1 2 1 9 113 114
110 1 2 1 9 114 115
111 1 2 1 9 115 116
112 1 2 1 9 116 117
113 1 2 1 9 117 118
114 1 2 1 9 118 119
115 1 2 1 9 119 120
116 1 2 1 9 120 121
117 1 2 1 9 121 122
118 1 2 1 9 122 123
119 1 2 1 9 123 124
120 1 2 1 9 124 125
121 1 2 1 9 125 126
122 1 2 1 9 126 127
123 1 2 1 9 127 128
124 1 2 1 9 128 129
125 1 2 1 9 129 130
126 1 2 1 9 130 1
127 3 2 5 1 1 10 187 130
128 3 2 5 1 130 187 188 129
129 3 2 5 1 129 188 189 128
130 3 2 5 1 128 189 190 127
131 3 2 5 1 127 190 191 126
132 3 2 5 1 126 191 192 125
133 3 2 5 1 125 192 193 124
134 3 2 5 1 124 193 194 123
135 3 2 5 1 123 194 195 122
136 3 2 5 1 122 195 196 121
137 3 2 5 1 121 196 197 120
138 3 2 5 1 120 197 198 119
139 3 2 5 1 119 198 199 118
140 3 2 5 1 118 199 200 117
141 3 2 5 1 117 200 201 116
142 3 2 5 1 116 201 202 115
143 3 2 5 1 115 202 203 114
144 3 2 5 1 114 203 204 113
145 3 2 5 1 113 204 205 112
146 3 2 5 1 112 205 206 111
147 3 2 5 1 111 206 207 110
148 3 2 5 1 110 207 208 109
149 3 2 5 1 109 208 209 108
150 3 2 5 1 108 209 210 107
151 3 2 5 1 107 210 211 106
152 3 2 5 1 106 211 212 105
153 3 2 5 1 105 212 157 7
154 3 2 5 1 10 11 213 187
155 3 2 5 1 187 213 214 188
156 3 2 5 1 188 214 215 189
157 3 2 5 1 189 215 216 190
158 3 2 5 1 190 216 217 191
159 3 2 5 1 191 217 218 192
160 3 2 5 1 192 218 219 193
161 3 2 5 1 193 219 220 194
162 3 2 5 1 194 220 221 195
163 3 2 5 1 195 221 222 196
164 3 2 5 1 196 222 223 197
165 3 2 5 1 197 223 224 198
166 3 2 5 1 198 224 225 199
167 3 2 5 1 199 225 226 200
168 3 2 5 1 200 226 227 201
169 3 2 5 1 201 227 228 202
170 3 2 5 1 202 228 229 203
171 3 2 5 1 203 229 230 204
172 3 2 5 1 204 230 231 205
173 3 2 5 1 205 231 232 206
174 3 2 5 1 206 232 233 207
175 3 2 5 1 207 233 234 208
176 3 2 5 1 208 234 235 209
177 3 2 5 1 209 235 236 210
178 3 2 5 1 210 236 237 211
179 3 2 5 1 211 237 238 212
180 3 2 5 1 212 238 158 157
181 3 2 5 1 11 12 239 213
182 3 2 5 1 213 239 240 214
183 3 2 5 1 214 240 241 215
184 3 2 5 1 215 241 242 216
185 3 2 5 1 216 242 243 217
186 3 2 5 1 217 243 244 218
187 3 2 5 1 218 244 245 219
188 3 2 5 1 219 245 246 220
189 3 2 5 1 220 246 247 221
190 3 2 5 1 221 247 248 222
191 3 2 5 1 222 248 249 223
192 3 2 5 1 223 249 250 224
193 3 2 5 1 224 250 251 225
194 3 2 5 1 225 251 252 226
195 3 2 5 1 226 252 253 227
196 3 2 5 1 227 253 254 228
197 3 2 5 1 228 254 255 229
198 3 2 5 1 229 255 256 230
199 3 2 5 1 230 256 257 231
200 3 2 5 1 231 257 258 232
201 3 2 5 1 232 258 259 233
202 3 2 5 1 233 259 260 234
203 3 2 5 1 234 260 261 235
204 3 2 5 1 235 261 262 236
205 3 2 5 1 236 262 263 237
206 3 2 5 1 237 263 264 238
207 3 2 5 1 238 264 159 158
208 3 2 5 1 12 13 265 239
209 3 2 5 1 239 265 266 240
210 3 2 5 1 240 266 267 241
211 3 2 5 1 241 267 268 242
212 3 2 5 1 242 268 269 243
213 3 2 5 1 243 269 270 244
214 3 2 5 1 244 270 271 245
215 3 2 5 1 245 271 272 246
216 3 2 5 1 246 272 273 247
217 3 2 5 1 247 273 274 248
218 3 2 5 1 248 274 275 249
219 3 2 5 1 249 275 276 250
220 3 2 5 1 250 276 277 251
221 3 2 5 1 251 277 278 252
222 3 2 5 1 252 278 279 253
223 3 2 5 1 253 279 280 254
224 3 2 5 1 254 280 281 255
225 3 2 5 1 255 281 282 256
226 3 2 5 1 256 282 283 257
227 3 2 5 1 257 283 284 258
228 3 2 5 1 258 284 285 259
229 3 2 5 1 259 285 286 260
230 3 2 5 1 260 286 287 261
231 3 2 5 1 261 287 288 262
232 3 2 5 1 262 288 289 263
233 3 2 5 1 263 289 290 264
234 3 2 5 1 264 290 160 159
235 3 2 5 1 13 2 156 265
236 3 2 5 1 265 156 155 266
237 3 2 5 1 266 155 154 267
238 3 2 5 1 267 154 153 268
239 3 2 5 1 268 153 152 269
240 3 2 5 1 269 152 151 270
241 3 2 5 1 270 151 150 271
242 3 2 5 1 271 150 149 272
243 3 2 5 1 272 149 148 273
244 3 2 5 1 273 148 147 274
245 3 2 5 1 274 147 146 275
246 3 2 5 1 275 146 145 276
247 3 2 5 1 276 145 144 277
248 3 2 5 1 277 144 143 278
249 3 2 5 1 278 143 142 279
250 3 2 5 1 279 142 141 280
251 3 2 5 1 280 141 140 281
252 3 2 5 1 281 140 139 282
253 3 2 5 1 282 139 138 283
254 3 2 5 1 283 138 137 284
255 3 2 5 1 284 137 136 285
256 3 2 5 1 285 136 135 286
257 3 2 5 1 286 135 134 287
258 3 2 5 1 287 134 133 288
259 3 2 5 1 288 133 132 289
260 3 2 5 1 289 132 131 290
261 3 2 5 1 290 131 8 160
262 3 2 5 2 2 14 291 156
263 3 2 5 2 156 291 292 155
264 3 2 5 2 155 292 293 154
265 3 2 5 2 154 293 294 153
266 3 2 5 2 153 294 295 152
267 3 2 5 2 152 295 296 151
268 3 2 5 2 151 296 297 150
269 3 2 5 2 150 297 298 149
270 3 2 5 2 149 298 299 148
271 3 2 5 2 148 299 300 147
272 3 2 5 2 147 300 301 146
273 3 2 5 2 146 301 302 145
274 3 2 5 2 145 302 303 144
275 3 2 5 2 144 303 304 143
276 3 2 5 2 143 304 305 142
277 3 2 5 2 142 305 306 141
278 3 2 5 2 141 306 307 140
279 3 2 5 2 140 307 308 139
280 3 2 5 2 139 308 309 138
281 3 2 5 2 138 309 310 137
282 3 2 5 2 137 310 311 136
283 3 2 5 2 136 311 312 135
284 3 2 5 2 135 312 313 134
285 3 2 5 2 134 313 314 133
286 3 2 5 2 133 314 315 132
287 3 2 5 2 132 315 316 131
288 3 2 5 2 131 316 161 8
289 3 2 5 2 14 15 317 291
290 3 2 5 2 291 317 318 292
291 3 2 5 2 292 318 319 293
292 3 2 5 2 293 319 320 294
293 3 2 5 2 294 320 321 295
294 3 2 5 2 295 321 322 296
295 3 2 5 2 296 322 323 297
296 3 2 5 2 297 323 324 298
297 3 2 5 2 298 324 325 299
298 3 2 5 2 299 325 326 300
299 3 2 5 2 300 326 327 301
300 3 2 5 2 301 327 328 302
301 3 2 5 2 302 328 329 303
302 3 2 5 2 303 329 330 304
303 3 2 5 2 304 330 331 305
304 3 2 5 2 305 331 332 306
305 3 2 5 2 306 332 333 307
306 3 2 5 2 307 333 334 308
307 3 2 5 2 308 334 335 309
308 3 2 5 2 309 335 336 310
309 3 2 5 2 310 336 337 311
310 3 2 5 2 311 337 338 312
311 3 2 5 2 312 338 339 313
312 3 2 5 2 313 339 340 314
313 3 2 5 2 314 340 341 315
314 3 2 5 2 315 341 342 316
315 3 2 5 2 316 342 162 161
316 3 2 5 2 15 16 343 317
317 3 2 5 2 317 343 344 318
318 3 2 5 2 318 344 345 319
319 3 2 5 2 319 345 346 320
320 3 2 5 2 320 346 347 321
321 3 2 5 2 321 347 348 322
322 3 2 5 2 322 348 349 323
323 3 2 5 2 323 349 350 324
324 3 2 5 2 324 350 351 325
325 3 2 5 2 325 351 352 326
326 3 2 5 2 326 352 353 327
327 3 2 5 2 327 353 354 328
328 3 2 5 2 328 354 355 329
329 3 2 5 2 329 355 356 330
330 3 2 5 2 330 356 357 331
331 3 2 5 2 331 357 358 332
332 3 2 5 2 332 358 359 333
333 3 2 5 2 333 359 360 334
334 3 2 5 2 334 360 361 335
335 3 2 5 2 335 361 362 336
336 3 2 5 2 336 362 363 337
337 3 2 5 2 337 363 364 338
338 3 2 5 2 338 364 365 339
339 3 2 5 2 339 365 366 340
340 3 2 5 2 340 366 367 341
341 3 2 5 2 341 367 368 342
342 3 2 5 2 342 368 163 162
343 3 2 5 2 16 17 369 343
344 3 2 5 2 343 369 370 344
345 3 2 5 2 344 370 371 345
346 3 2 5 2 345 371 372 346
347 3 2 5 2 346 372 373 347
348 3 2 5 2 347 373 374 348
349 3 2 5 2 348 374 375 349
350 3 2 5 2 349 375 376 350
351 3 2 5 2 350 376 377 351
352 3 2 5 2 351 377 378 352
353 3 2 5 2 352 378 379 353
354 3 2 5 2 353 379 380 354
355 3 2 5 2 354 380 381 355
356 3 2 5 2 355 381 382 356
357 3 2 5 2 356 382 383 357
358 3 2 5 2 357 383 384 358
359 3 2 5 2 358 384 385 359
360 3 2 5 2 359 385 386 360
361 3 2 5 2 360 386 387 361
362 3 2 5 2 361 387 388 362
363 3 2 5 2 362 388 389 363
364 3 2 5 2 363 389 390 364
365 3 2 5 2 364 390 391 365
366 3 2 5 2 365 391 392 366
367 3 2 5 2 366 392 393 367
368 3 2 5 2 367 393 394 368
369 3 2 5 2 368 394 164 163
370 3 2 5 2 17 18 395 369
371 3 2 5 2 369 395 396 370
372 3 2 5 2 370 396 397 371
373 3 2 5 2 371 397 398 372
374 3 2 5 2 372 398 399 373
375 3 2 5 2 373 399 400 374
376 3 2 5 2 374 400 401 375
377 3 2 5 2 375 401 402 376
378 3 2 5 2 376 402 403 377
379 3 2 5 2 377 403 404 378
380 3 2 5 2 378 404 405 379
381 3 2 5 2 379 405 406 380
382 3 2 5 2 380 406 407 381
383 3 2 5 2 381 407 408 382
384 3 2 5 2 382 408 409 383
385 3 2 5 2 383 409 410 384
386 3 2 5 2 384 410 411 385
387 3 2 5 2 385 411 412 386
388 3 2 5 2 386 412 413 387
389 3 2 5 2 387 413 414 388
390 3 2 5 2 388 414 415 389
391 3 2 5 2 389 415 416 390
392 3 2 5 2 390 416 417 391
393 3 2 5 2 391 417 418 392
394 3 2 5 2 392 418 419 393
395 3 2 5 2 393 419 420 394
396 3 2 5 2 394 420 165 164
397 3 2 5 2 18 19 421 395
398 3 2 5 2 395 421 422 396
399 3 2 5 2 396 422 423 397
400 3 2 5 2 397 423 424 398
401 3 2 5 2 398 424 425 399
402 3 2 5 2 399 425 426 400
403 3 2 5 2 400 426 427 401
404 3 2 5 2 401 427 428 402
405 3 2 5 2 402 428 429 403
406 3 2 5 2 403 429 430 404
407 3 2 5 2 404 430 431 405
408 3 2 5 2 405 431 432 406
409 3 2 5 2 406 432 433 407
410 3 2 5 2 407 433 434 408
411 3 2 5 2 408 434 435 409
412 3 2 5 2 409 435 436 410
413 3 2 5 2 410 436 437 411
414 3 2 5 2 411 437 438 412
415 3 2 5 2 412 438 439 413
416 3 2 5 2 413 439 440 414
417 3 2 5 2 414 440 441 415
418 3 2 5 2 415 441 442 416
419 3 2 5 2 416 442 443 417
420 3 2 5 2 417 443 444 418
421 3 2 5 2 418 444 445 419
422 3 2 5 2 419 445 446 420
423 3 2 5 2 420 446 166 165
424 3 2 5 2 19 20 447 421
425 3 2 5 2 421 447 448 422
426 3 2 5 2 422 448 449 423
427 3 2 5 2 423 449 450 424
428 3 2 5 2 424 450 451 425
429 3 2 5 2 425 451 452 426
430 3 2 5 2 426 452 453 427
431 3 2 5 2 427 453 454 428
432 3 2 5 2 428 454 455 429
433 3 2 5 2 429 455 456 430
434 3 2 5 2 430 456 457 431
435 3 2 5 2 431 457 458 432
436 3 2 5 2 432 458 459 433
437 3 2 5 2 433 459 460 434
438 3 2 5 2 434 460 461 435
439 3 2 5 2 435 461 462 436
440 3 2 5 2 436 462 463 437
441 3 2 5 2 437 463 464 438
442 3 2 5 2 438 464 465 439
443 3 2 5 2 439 465 466 440
444 3 2 5 2 440 466 467 441
445 3 2 5 2 441 467 468 442
446 3 2 5 2 442 468 469 443
447 3 2 5 2 443 469 470 444
448 3 2 5 2 444 470 471 445
449 3 2 5 2 445 471 472 446
450 3 2 5 2 446 472 167 166
451 3 2 5 2 20 21 473 447
452 3 2 5 2 447 473 474 448
453 3 2 5 2 448 474 475 449
454 3 2 5 2 449 475 476 450
455 3 2 5 2 450 476 477 451
456 3 2 5 2 451 477 478 452
457 3 2 5 2 452 478 479 453
458 3 2 5 2 453 479 480 454
459 3 2 5 2 454 480 481 455
460 3 2 5 2 455 481 482 456
461 3 2 5 2 456 482 483 457
462 3 2 5 2 457 483 484 458
463 3 2 5 2 458 484 485 459
464 3 2 5 2 459 485 486 460
465 3 2 5 2 460 486 487 461
466 3 2 5 2 461 487 488 462
467 3 2 5 2 462 488 489 463
468 3 2 5 2 463 489 490 464
469 3 2 5 2 464 490 491 465
470 3 2 5 2 465 491 492 466
471 3 2 5 2 466 492 493 467
472 3 2 5 2 467 493 494 468
473 3 2 5 2 468 494 495 469
474 3 2 5 2 469 495 496 470
475 3 2 5 2 470 496 497 471
476 3 2 5 2 471 497 498 472
477 3 2 5 2 472 498 168 167
478 3 2 5 2 21 22 499 473
479 3 2 5 2 473 499 500 474
480 3 2 5 2 474 500 501 475
481 3 2 5 2 475 501 502 476
482 3 2 5 2 476 502 503 477
483 3 2 5 2 477 503 504 478
484 3 2 5 2 478 504 505 479
485 3 2 5 2 479 505 506 480
486 3 2 5 2 480 506 507 481
487 3 2 5 2 481 507 508 482
488 3 2 5 2 482 508 509 483
489 3 2 5 2 483 509 510 484
490 3 2 5 2 484 510 511 485
491 3 2 5 2 485 511 512 486
492 3 2 5 2 486 512 513 487
493 3 2 5 2 487 513 514 488
494 3 2 5 2 488 514 515 489
495 3 2 5 2 489 515 516 490
496 3 2 5 2 490 516 517 491
497 3 2 5 2 491 517 518 492
498 3 2 5 2 492 518 519 493
499 3 2 5 2 493 519 520 494
500 3 2 5 2 494 520 521 495
501 3 2 5 2 495 521 522 496
502 3 2 5 2 496 522 523 497
503 3 2 5 2 497 523 524 498
504 3 2 5 2 498 524 169 168
505 3 2 5 2 22 23 525 499
506 3 2 5 2 499 525 526 500
507 3 2 5 2 500 526 527 501
508 3 2 5 2 501 527 528 502
509 3 2 5 2 502 528 529 503
510 3 2 5 2 503 529 530 504
511 3 2 5 2 504 530 531 505
512 3 2 5 2 505 531 532 506
513 3 2 5 2 506 532 533 507
514 3 2 5 2 507 533 534 508
515 3 2 5 2 508 534 535 509
516 3 2 5 2 509 535 536 510
517 3 2 5 2 510 536 537 511
518 3 2 5 2 511 537 538 512
519 3 2 5 2 512 538 539 513
520 3 2 5 2 513 539 540 514
521 3 2 5 2 514 540 541 515
522 3 2 5 2 515 541 542 516
523 3 2 5 2 516 542 543 517
524 3 2 5 2 517 543 544 518
525 3 2 5 2 518 544 545 519
526 3 2 5 2 519 545 546 520
527 3 2 5 2 520 546 547 521
528 3 2 5 2 521 547 548 522
529 3 2 5 2 522 548 549 523
530 3 2 5 2 523 549 550 524
531 3 2 5 2 524 550 170 169
532 3 2 5 2 23 24 551 525
533 3 2 5 2 525 551 552 526
534 3 2 5 2 526 552 553 527
535 3 2 5 2 527 553 554 528
536 3 2 5 2 528 554 555 529
537 3 2 5 2 529 555 556 530
538 3 2 5 2 530 556 557 531
539 3 2 5 2 531 557 558 532
540 3 2 5 2 532 558 559 533
541 3 2 5 2 533 559 560 534
542 3 2 5 2 534 560 561 535
543 3 2 5 2 535 561 562 536
544 3 2 5 2 536 562 563 537
545 3 2 5 2 537 563 564 538
546 3 2 5 2 538 564 565 539
547 3 2 5 2 539 565 566 540
548 3 2 5 2 540 566 567 541
549 3 2 5 2 541 567 568 542
550 3 2 5 2 542 568 569 543
551 3 2 5 2 543 569 570 544
552 3 2 5 2 544 570 571 545
553 3 2 5 2 545 571 572 546
554 3 2 5 2 546 572 573 547
555 3 2 5 2 547 573 574 548
556 3 2 5 2 548 574 575 549
557 3 2 5 2 549 575 576 550
558 3 2 5 2 550 576 171 170
559 3 2 5 2 24 25 577 551
560 3 2 5 2 551 577 578 552
561 3 2 5 2 552 578 579 553
562 3 2 5 2 553 579 580 554
563 3 2 5 2 554 580 581 555
564 3 2 5 2 555 581 582 556
565 3 2 5 2 556 582 583 557
566 3 2 5 2 557 583 584 558
567 3 2 5 2 558 584 585 559
568 3 2 5 2 559 585 586 560
569 3 2 5 2 560 586 587 561
570 3 2 5 2 561 587 588 562
571 3 2 5 2 562 588 589 563
572 3 2 5 2 563 589 590 564
573 3 2 5 2 564 590 591 565
574 3 2 5 2 565 591 592 566
575 3 2 5 2 566 592 593 567
576 3 2 5 2 567 593 594 568
577 3 2 5 2 568 594 595 569
578 3 2 5 2 569 595 596 570
579 3 2 5 2 570 596 597 571
580 3 2 5 2 571 597 598 572
581 3 2 5 2 572 598 599 573
582 3 2 5 2 573 599 600 574
583 3 2 5 2 574 600 601 575
584 3 2 5 2 575 601 602 576
585 3 2 5 2 576 602 172 171
586 3 2 5 2 25 26 603 577
587 3 2 5 2 577 603 604 578
588 3 2 5 2 578 604 605 579
589 3 2 5 2 579 605 606 580
590 3 2 5 2 580 606 607 581
591 3 2 5 2 581 607 608 582
592 3 2 5 2 582 608 609 583
593 3 2 5 2 583 609 610 584
594 3 2 5 2 584 610 611 585
595 3 2 5 2 585 611 612 586
596 3 2 5 2 586 612 613 587
597 3 2 5 2 587 613 614 588
598 3 2 5 2 588 614 615 589
599 3 2 5 2 589 615 616 590
600 3 2 5 2 590 616 617 591
601 3 2 5 2 591 617 618 592
602 3 2 5 2 592 618 619 593
603 3 2 5 2 593 619 620 594
604 3 2 5 2 594 620 621 595
605 3 2 5 2 595 621 622 596
606 3 2 5 2 596 622 623 597
607 3 2 5 2 597 623 624 598
608 3 2 5 2 598 624 625 599
609 3 2 5 2 599 625 626 600
610 3 2 5 2 600 626 627 601
611 3 2 5 2 601 627 628 602
612 3 2 5 2 602 628 173 172
613 3 2 5 2 26 27 629 603
614 3 2 5 2 603 629 630 604
615 3 2 5 2 604 630 631 605
616 3 2 5 2 605 631 632 606
617 3 2 5 2 606 632 633 607
618 3 2 5 2 607 633 634 608
619 3 2 5 2 608 634 635 609
620 3 2 5 2 609 635 636 610
621 3 2 5 2 610 636 637 611
622 3 2 5 2 611 637 638 612
623 3 2 5 2 612 638 639 613
624 3 2 5 2 613 639 640 614
625 3 2 5 2 614 640 641 615
626 3 2 5 2 615 641 642 616
627 3 2 5 2 616 642 643 617
628 3 2 5 2 617 643 644 618
629 3 2 5 2 618 644 645 619
630 3 2 5 2 619 645 646 620
631 3 2 5 2 620 646 647 621
632 3 2 5 2 621 647 648 622
633 3 2 5 2 622 648 649 623
634 3 2 5 2 623 649 650 624
635 3 2 5 2 624 650 651 625
636 3 2 5 2 625 651 652 626
637 3 2 5 2 626 652 653 627
638 3 2 5 2 627 653 654 628
639 3 2 5 2 628 654 174 173
640 3 2 5 2 27 28 655 629
641 3 2 5 2 629 655 656 630
642 3 2 5 2 630 656 657 631
643 3 2 5 2 631 657 658 632
644 3 2 5 2 632 658 659 633
645 3 2 5 2 633 659 660 634
646 3 2 5 2 634 660 661 635
647 3 2 5 2 635 661 662 636
648 3 2 5 2 636 662 663 637
649 3 2 5 2 637 663 664 638
650 3 2 5 2 638 664 665 639
651 3 2 5 2 639 665 666 640
652 3 2 5 2 640 666 667 641
653 3 2 5 2 641 667 668 642
654 3 2 5 2 642 668 669 643
655 3 2 5 2 643 669 670 644
656 3 2 5 2 644 670 671 645
657 3 2 5 2 645 671 672 646
658 3 2 5 2 646 672 673 647
659 3 2 5 2 647 673 674 648
660 3 2 5 2 648 674 675 649
661 3 2 5 2 649 675 676 650
662 3 2 5 2 650 676 677 651
663 3 2 5 2 651 677 678 652
664 3 2 5 2 652 678 679 653
665 3 2 5 2 653 679 680 654
666 3 2 5 2 654 680 175 174
667 3 2 5 2 28 29 681 655
668 3 2 5 2 655 681 682 656
669 3 2 5 2 656 682 683 657
670 3 2 5 2 657 683 684 658
671 3 2 5 2 658 684 685 659
672 3 2 5 2 659 685 686 660
673 3 2 5 2 660 686 687 661
674 3 2 5 2 661 687 688 662
675 3 2 5 2 662 688 689 663
676 3 2 5 2 663 689 690 664
677 3 2 5 2 664 690 691 665
678 3 2 5 2 665 691 692 666
679 3 2 5 2 666 692 693 667
680 3 2 5 2 667 693 694 668
681 3 2 5 2 668 694 695 669
682 3 2 5 2 669 695 696 670
683 3 2 5 2 670 696 697 671
684 3 2 5 2 671 697 698 672
685 3 2 5 2 672 698 699 673
686 3 2 5 2 673 699 700 674
687 3 2 5 2 674 700 701 675
688 3 2 5 2 675 701 702 676
689 3 2 5 2 676 702 703 677
690 3 2 5 2 677 703 704 678
691 3 2 5 2 678 704 705 679
692 3 2 5 2 679 705 706 680
693 3 2 5 2 680 706 176 175
694 3 2 5 2 29 30 707 681
695 3 2 5 2 681 707 708 682
696 3 2 5 2 682 708 709 683
697 3 2 5 2 683 709 710 684
698 3 2 5 2 684 710 711 685
699 3 2 5 2 685 711 712 686
700 3 2 5 2 686 712 713 687
701 3 2 5 2 687 713 714 688
702 3 2 5 2 688 714 715 689
703 3 2 5 2 689 715 716 690
704 3 2 5 2 690 716 717 691
705 3 2 5 2 691 717 718 692
706 3 2 5 2 692 718 719 693
707 3 2 5 2 693 719 720 694
708 3 2 5 2 694 720 721 695
709 3 2 5 2 695 721 722 696
710 3 2 5 2 696 722 723 697
711 3 2 5 2 697 723 724 698
712 3 2 5 2 698 724 725 699
713 3 2 5 2 699 725 726 700
714 3 2 5 2 700 726 727 701
715 3 2 5 2 701 727 728 702
716 3 2 5 2 702 728 729 703
717 3 2 5 2 703 729 730 704
718 3 2 5 2 704 730 731 705
719 3 2 5 2 705 731 732 706
720 3 2 5 2 706 732 177 176
721 3 2 5 2 30 31 733 707
722 3 2 5 2 707 733 734 708
723 3 2 5 2 708 734 735 709
724 3 2 5 2 709 735 736 710
725 3 2 5 2 710 736 737 711
726 3 2 5 2 711 737 738 712
727 3 2 5 2 712 738 739 713
728 3 2 5 2 713 739 740 714
729 3 2 5 2 714 740 741 715
730 3 2 5 2 715 741 742 716
731 3 2 5 2 716 742 743 717
732 3 2 5 2 717 743 744 718
733 3 2 5 2 718 744 745 719
734 3 2 5 2 719 745 746 720
735 3 2 5 2 720 746 747 721
736 3 2 5 2 721 747 748 722
737 3 2 5 2 722 748 749 723
738 3 2 5 2 723 749 750 724
739 3 2 5 2 724 750 751 725
740 3 2 5 2 725 751 752 726
741 3 2 5 2 726 752 753 727
742 3 2 5 2 727 753 754 728
743 3 2 5 2 728 754 755 729
744 3 2 5 2 729 755 756 730
745 3 2 5 2 730 756 757 731
746 3 2 5 2 731 757 758 732
747 3 2 5 2 732 758 178 177
748 3 2 5 2 31 32 759 733
749 3 2 5 2 733 759 760 734
750 3 2 5 2 734 760 761 735
751 3 2 5 2 735 761 762 736
752 3 2 5 2 736 762 763 737
753 3 2 5 2 737 763 764 738
754 3 2 5 2 738 764 765 739
755 3 2 5 2 739 765 766 740
756 3 2 5 2 740 766 767 741
757 3 2 5 2 741 767 768 742
758 3 2 5 2 742 768 769 743
759 3 2 5 2 743 769 770 744
760 3 2 5 2 744 770 771 745
761 3 2 5 2 745 771 772 746
762 3 2 5 2 746 772 773 747
763 3 2 5 2 747 773 774 748
764 3 2 5 2 748 774 775 749
765 3 2 5 2 749 775 776 750
766 3 2 5 2 750 776 777 751
767 3 2 5 2 751 777 778 752
768 3 2 5 2 752 778 779 753
769 3 2 5 2 753 779 780 754
770 3 2 5 2 754 780 781 755
771 3 2 5 2 755 781 782 756
772 3 2 5 2 756 782 783 757
773 3 2 5 2 757 783 784 758
774 3 2 5 2 758 784 179 178
775 3 2 5 2 32 33 785 759
776 3 2 5 2 759 785 786 760
777 3 2 5 2 760 786 787 761
778 3 2 5 2 761 787 788 762
779 3 2 5 2 762 788 789 763
780 3 2 5 2 763 789 790 764
781 3 2 5 2 764 790 791 765
782 3 2 5 2 765 791 792 766
783 3 2 5 2 766 792 793 767
784 3 2 5 2 767 793 794 768
785 3 2 5 2 768 794 795 769
786 3 2 5 2 769 795 796 770
787 3 2 5 2 770 796 797 771
788 3 2 5 2 771 797 798 772
789 3 2 5 2 772 798 799 773
790 3 2 5 2 773 799 800 774
791 3 2 5 2 774 800 801 775
792 3 2 5 2 775 801 802 776
793 3 2 5 2 776 802 803 777
794 3 2 5 2 777 803 804 778
795 3 2 5 2 778 804 805 779
796 3 2 5 2 779 805 806 780
797 3 2 5 2 780 806 807 781
798 3 2 5 2 781 807 808 782
799 3 2 5 2 782 808 809 783
800 3 2 5 2 783 809 810 784
801 3 2 5 2 784 810 180 179
802 3 2 5 2 33 34 811 785
803 3 2 5 2 785 811 812 786
804 3 2 5 2 786 812 813 787
805 3 2 5 2 787 813 814 788
806 3 2 5 2 788 814 815 789
807 3 2 5 2 789 815 816 790
808 3 2 5 2 790 816 817 791
809 3 2 5 2 791 817 818 792
810 3 2 5 2 792 818 819 793
811 3 2 5 2 793 819 820 794
812 3 2 5 2 794 820 821 795
813 3 2 5 2 795 821 822 796
814 3 2 5 2 796 822 823 797
815 3 2 5 2 797 823 824 798
816 3 2 5 2 798 824 825 799
817 3 2 5 2 799 825 826 800
818 3 2 5 2 800 826 827 801
819 3 2 5 2 801 827 828 802
820 3 2 5 2 802 828 829 803
821 3 2 5 2 803 829 830 804
822 3 2 5 2 804 830 831 805
823 3 2 5 2 805 831 832 806
824 3 2 5 2 806 832 833 807
825 3 2 5 2 807 833 834 808
826 3 2 5 2 808 834 835 809
827 3 2 5 2 809 835 836 810
828 3 2 5 2 810 836 181 180
829 3 2 5 2 34 35 837 811
830 3 2 5 2 811 837 838 812
831 3 2 5 2 812 838 839 813
832 3 2 5 2 813 839 840 814
833 3 2 5 2 814 840 841 815
834 3 2 5 2 815 841 842 816
835 3 2 5 2 816 842 843 817
836 3 2 5 2 817 843 844 818
837 3 2 5 2 818 844 845 819
838 3 2 5 2 819 845 846 820
839 3 2 5 2 820 846 847 821
840 3 2 5 2 821 847 848 822
841 3 2 5 2 822 848 849 823
842 3 2 5 2 823 849 850 824
843 3 2 5 2 824 850 851 825
844 3 2 5 2 825 851 852 826
845 3 2 5 2 826 852 853 827
846 3 2 5 2 827 853 854 828
847 3 2 5 2 828 854 855 829
848 3 2 5 2 829 855 856 830
849 3 2 5 2 830 856 857 831
850 3 2 5 2 831 857 858 832
851 3 2 5 2 832 858 859 833
852 3 2 5 2 833 859 860 834
853 3 2 5 2 834 860 861 835
854 3 2 5 2 835 861 862 836
855 3 2 5 2 836 862 182 181
856 3 2 5 2 35 36 863 837
857 3 2 5 2 837 863 864 838
858 3 2 5 2 838 864 865 839
859 3 2 5 2 839 865 866 840
860 3 2 5 2 840 866 867 841
861 3 2 5 2 841 867 868 842
862 3 2 5 2 842 868 869 843
863 3 2 5 2 843 869 870 844
864 3 2 5 2 844 870 871 845
865 3 2 5 2 845 871 872 846
866 3 2 5 2 846 872 873 847
867 3 2 5 2 847 873 874 848
868 3 2 5 2 848 874 875 849
869 3 2 5 2 849 875 876 850
870 3 2 5 2 850 876 877 851
871 3 2 5 2 851 877 878 852
872 3 2 5 2 852 878 879 853
873 3 2 5 2 853 879 880 854
874 3 2 5 2 854 880 881 855
875 3 2 5 2 855 881 882 856
876 3 2 5 2 856 882 883 857
877 3 2 5 2 857 883 884 858
878 3 2 5 2 858 884 885 859
879 3 2 5 2 859 885 886 860
880 3 2 5 2 860 886 887 861
881 3 2 5 2 861 887 888 862
882 3 2 5 2 862 888 183 182
883 3 2 5 2 36 37 889 863
884 3 2 5 2 863 889 890 864
885 3 2 5 2 864 890 891 865
886 3 2 5 2 865 891 892 866
887 3 2 5 2 866 892 893 867
888 3 2 5 2 867 893 894 868
889 3 2 5 2 868 894 895 869
890 3 2 5 2 869 895 896 870
891 3 2 5 2 870 896 897 871
892 3 2 5 2 871 897 898 872
893 3 2 5 2 872 898 899 873
894 3 2 5 2 873 899 900 874
895 3 2 5 2 874 900 901 875
896 3 2 5 2 875 901 902 876
897 3 2 5 2 876 902 903 877
898 3 2 5 2 877 903 904 878
899 3 2 5 2 878 904 905 879
900 3 2 5 2 879 905 906 880
901 3 2 5 2 880 906 907 881
902 3 2 5 2 881 907 908 882
903 3 2 5 2 882 908 909 883
904 3 2 5 2 883 909 910 884
905 3 2 5 2 884 910 911 885
906 3 2 5 2 885 911 912 886
907 3 2 5 2 886 912 913 887
908 3 2 5 2 887 913 914 888
909 3 2 5 2 888 914 184 183
910 3 2 5 2 37 38 915 889
911 3 2 5 2 889 915 916 890
912 3 2 5 2 890 916 917 891
913 3 2 5 2 891 917 918 892
914 3 2 5 2 892 918 919 893
915 3 2 5 2 893 919 920 894
916 3 2 5 2 894 920 921 895
917 3 2 5 2 895 921 922 896
918 3 2 5 2 896 922 923 897
919 3 2 5 2 897 923 924 898
920 3 2 5 2 898 924 925 899
921 3 2 5 2 899 925 926 900
922 3 2 5 2 900 926 927 901
923 3 2 5 2 901 927 928 902
924 3 2 5 2 902 928 929 903
925 3 2 5 2 903 929 930 904
926 3 2 5 2 904 930 931 905
927 3 2 5 2 905 931 932 906
928 3 2 5 2 906 932 933 907
929 3 2 5 2 907 933 934 908
930 3 2 5 2 908 934 935 909
931 3 2 5 2 909 935 936 910
932 3 2 5 2 910 936 937 911
933 3 2 5 2 911 937 938 912
934 3 2 5 2 912 938 939 913
935 3 2 5 2 913 939 940 914
936 3 2 5 2 914 940 185 184
937 3 2 5 2 38 39 941 915
938 3 2 5 2 915 941 942 916
939 3 2 5 2 916 942 943 917
940 3 2 5 2 917 943 944 918
941 3 2 5 2 918 944 945 919
942 3 2 5 2 919 945 946 920
943 3 2 5 2 920 946 947 921
944 3 2 5 2 921 947 948 922
945 3 2 5 2 922 948 949 923
946 3 2 5 2 923 949 950 924
947 3 2 5 2 924 950 951 925
948 3 2 5 2 925 951 952 926
949 3 2 5 2 926 952 953 927
950 3 2 5 2 927 953 954 928
951 3 2 5 2 928 954 955 929
952 3 2 5 2 929 955 956 930
953 3 2 5 2 930 956 957 931
954 3 2 5 2 931 957 958 932
955 3 2 5 2 932 958 959 933
956 3 2 5 2 933 959 960 934
957 3 2 5 2 934 960 961 935
958 3 2 5 2 935 961 962 936
959 3 2 5 2 936 962 963 937
960 3 2 5 2 937 963 964 938
961 3 2 5 2 938 964 965 939
962 3 2 5 2 939 965 966 940
963 3 2 5 2 940 966 186 185
964 3 2 5 2 39 3 40 941
965 3 2 5 2 941 40 41 942
966 3 2 5 2 942 41 42 943
967 3 2 5 2 943 42 43 944
968 3 2 5 2 944 43 44 945
969 3 2 5 2 945 44 45 946
970 3 2 5 2 946 45 46 947
971 3 2 5 2 947 46 47 948
972 3 2 5 2 948 47 48 949
973 3 2 5 2 949 48 49 950
974 3 2 5 2 950 49 50 951
975 3 2 5 2 951 50 51 952
976 3 2 5 2 952 51 52 953
977 3 2 5 2 953 52 53 954
978 3 2 5 2 954 53 54 955
979 3 2 5 2 955 54 55 956
980 3 2 5 2 956 55 56 957
981 3 2 5 2 957 56 57 958
982 3 2 5 2 958 57 58 959
983 3 2 5 2 959 58 59 960
984 3 2 5 2 960 59 60 961
985 3 2 5 2 961 60 61 962
986 3 2 5 2 962 61 62 963
987 3 2 5 2 963 62 63 964
988 3 2 5 2 964 63 64 965
989 3 2 5 2 965 64 65 966
990 3 2 5 2 966 65 9 186
991 3 2 5 3 7 157 967 98
992 3 2 5 3 98 967 968 97
993 3 2 5 3 97 968 969 96
994 3 2 5 3 96 969 95 6
995 3 2 5 3 157 158 970 967
996 3 2 5 3 967 970 971 968
997 3 2 5 3 968 971 972 969
998 3 2 5 3 969 972 94 95
999 3 2 5 3 158 159 973 970
1000 3 2 5 3 970 973 974 971
1001 3 2 5 3 971 974 975 972
1002 3 2 5 3 972 975 93 94
1003 3 2 5 3 159 160 976 973
1004 3 2 5 3 973 976 977 974
1005 3 2 5 3 974 977 978 975
1006 3 2 5 3 975 978 92 93
1007 3 2 5 3 160 8 101 976
1008 3 2 5 3 976 101 100 977
1009 3 2 5 3 977 100 99 978
1010 3 2 5 3 978 99 5 92
1011 3 2 5 4 8 161 979 101
1012 3 2 5 4 101 979 980 100
1013 3 2 5 4 100 980 981 99
1014 3 2 5 4 99 981 91 5
1015 3 2 5 4 161 162 982 979
1016 3 2 5 4 979 982 983 980
1017 3 2 5 4 980 983 984 981
1018 3 2 5 4 981 984 90 91
1019 3 2 5 4 162 163 985 982
1020 3 2 5 4 982 985 986 983
1021 3 2 5 4 983 986 987 984
1022 3 2 5 4 984 987 89 90
1023 3 2 5 4 163 164 988 985
1024 3 2 5 4 985 988 989 986
1025 3 2 5 4 986 989 990 987
1026 3 2 5 4 987 990 88 89
1027 3 2 5 4 164 165 991 988
1028 3 2 5 4 988 991 992 989
1029 3 2 5 4 989 992 993 990
1030 3 2 5 4 990 993 87 88
1031 3 2 5 4 165 166 994 991
1032 3 2 5 4 991 994 995 992
1033 3 2 5 4 992 995 996 993
1034 3 2 5 4 993 996 86 87
1035 3 2 5 4 166 167 997 994
1036 3 2 5 4 994 997 998 995
1037 3 2 5 4 995 998 999 996
1038 3 2 5 4 996 999 85 86
1039 3 2 5 4 167 168 1000 997
1040 3 2 5 4 997 1000 1001 998
1041 3 2 5 4 998 1001 1002 999
1042 3 2 5 4 999 1002 84 85
1043 3 2 5 4 168 169 1003 1000
1044 3 2 5 4 1000 1003 1004 1001
1045 3 2 5 4 1001 1004 1005 1002
1046 3 2 5 4 1002 1005 83 84
1047 3 2 5 4 169 170 1006 1003
1048 3 2 5 4 1003 1006 1007 1004
1049 3 2 5 4 1004 1007 1008 1005
1050 3 2 5 4 1005 1008 82 83
1051 3 2 5 4 170 171 1009 1006
1052 3 2 5 4 1006 1009 1010 1007
1053 3 2 5 4 1007 1010 1011 1008
1054 3 2 5 4 1008 1011 81 82
1055 3 2 5 4 171 172 1012 1009
1056 3 2 5 4 1009 1012 1013 1010
1057 3 2 5 4 1010 1013 1014 1011
1058 3 2 5 4 1011 1014 80 81
1059 3 2 5 4 172 173 1015 1012
1060 3 2 5 4 1012 1015 1016 1013
1061 3 2 5 4 1013 1016 1017 1014
1062 3 2 5 4 1014 1017 79 80
1063 3 2 5 4 173 174 1018 1015
1064 3 2 5 4 1015 1018 1019 1016
1065 3 2 5 4 1016 1019 1020 1017
1066 3 2 5 4 1017 1020 78 79
1067 3 2 5 4 174 175 1021 1018
1068 3 2 5 4 1018 1021 1022 1019
1069 3 2 5 4 1019 1022 1023 1020
1070 3 2 5 4 1020 1023 77 78
1071 3 2 5 4 175 176 1024 1021
1072 3 2 5 4 1021 1024 1025 1022
1073 3 2 5 4 1022 1025 1026 1023
1074 3 2 5 4 1023 1026 76 77
1075 3 2 5 4 176 177 1027 1024
1076 3 2 5 4 1024 1027 1028 1025
1077 3 2 5 4 1025 1028 1029 1026
1078 3 2 5 4 1026 1029 75 76
1079 3 2 5 4 177 178 1030 1027
1080 3 2 5 4 1027 1030 1031 1028
1081 3 2 5 4 1028 1031 1032 1029
1082 3 2 5 4 1029 1032 74 75
1083 3 2 5 4 178 179 1033 1030
1084 3 2 5 4 1030 1033 1034 1031
1085 3 2 5 4 1031 1034 1035 1032
1086 3 2 5 4 1032 1035 73 74
1087 3 2 5 4 179 180 1036 1033
1088 3 2 5 4 1033 1036 1037 1034
1089 3 2 5 4 1034 1037 1038 1035
1090 3 2 5 4 1035 1038 72 73
1091 3 2 5 4 180 181 1039 1036
1092 3 2 5 4 1036 1039 1040 1037
1093 3 2 5 4 1037 1040 1041 1038
1094 3 2 5 4 1038 1041 71 72
1095 3 2 5 4 181 182 1042 1039
1096 3 2 5 4 1039 1042 1043 1040
1097 3 2 5 4 1040 1043 1044 1041
1098 3 2 5 4 1041 1044 70 71
1099 3 2 5 4 182 183 1045 1042
1100 3 2 5 4 1042 1045 1046 1043
1101 3 2 5 4 1043 1046 1047 1044
1102 3 2 5 4 1044 1047 69 70
1103 3 2 5 4 183 184 1048 1045
1104 3 2 5 4 1045 1048 1049 1046
1105 3 2 5 4 1046 1049 1050 1047
1106 3 2 5 4 1047 1050 68 69
1107 3 2 5 4 184 185 1051 1048
1108 3 2 5 4 1048 1051 1052 1049
1109 3 2 5 4 1049 1052 1053 1050
1110 3 2 5 4 1050 1053 67 68
1111 3 2 5 4 185 186 1054 1051
1112 3 2 5 4 1051 1054 1055 1052
1113 3 2 5 4 1052 1055 1056 1053
1114 3 2 5 4 1053 1056 66 67
1115 3 2 5 4 186 9 102 1054
1116 3 2 5 4 1054 102 103 1055
1117 3 2 5 4 1055 103 104 1056
1118 3 2 5 4 1056 104 4 66
$EndElements
